G04 #@! TF.GenerationSoftware,KiCad,Pcbnew,(5.0.2-5)-5*
G04 #@! TF.CreationDate,2019-03-18T15:48:25+01:00*
G04 #@! TF.ProjectId,coffee-notification-button,636f6666-6565-42d6-9e6f-746966696361,00001*
G04 #@! TF.SameCoordinates,Original*
G04 #@! TF.FileFunction,Paste,Top*
G04 #@! TF.FilePolarity,Positive*
%FSLAX46Y46*%
G04 Gerber Fmt 4.6, Leading zero omitted, Abs format (unit mm)*
G04 Created by KiCad (PCBNEW (5.0.2-5)-5) date 2019 March 18, Monday 15:48:25*
%MOMM*%
%LPD*%
G01*
G04 APERTURE LIST*
%ADD10C,0.100000*%
%ADD11C,1.425000*%
%ADD12C,1.150000*%
%ADD13R,1.560000X0.650000*%
%ADD14R,1.900000X0.800000*%
G04 APERTURE END LIST*
D10*
G04 #@! TO.C,C4*
G36*
X114949504Y-99274204D02*
X114973773Y-99277804D01*
X114997571Y-99283765D01*
X115020671Y-99292030D01*
X115042849Y-99302520D01*
X115063893Y-99315133D01*
X115083598Y-99329747D01*
X115101777Y-99346223D01*
X115118253Y-99364402D01*
X115132867Y-99384107D01*
X115145480Y-99405151D01*
X115155970Y-99427329D01*
X115164235Y-99450429D01*
X115170196Y-99474227D01*
X115173796Y-99498496D01*
X115175000Y-99523000D01*
X115175000Y-100448000D01*
X115173796Y-100472504D01*
X115170196Y-100496773D01*
X115164235Y-100520571D01*
X115155970Y-100543671D01*
X115145480Y-100565849D01*
X115132867Y-100586893D01*
X115118253Y-100606598D01*
X115101777Y-100624777D01*
X115083598Y-100641253D01*
X115063893Y-100655867D01*
X115042849Y-100668480D01*
X115020671Y-100678970D01*
X114997571Y-100687235D01*
X114973773Y-100693196D01*
X114949504Y-100696796D01*
X114925000Y-100698000D01*
X113675000Y-100698000D01*
X113650496Y-100696796D01*
X113626227Y-100693196D01*
X113602429Y-100687235D01*
X113579329Y-100678970D01*
X113557151Y-100668480D01*
X113536107Y-100655867D01*
X113516402Y-100641253D01*
X113498223Y-100624777D01*
X113481747Y-100606598D01*
X113467133Y-100586893D01*
X113454520Y-100565849D01*
X113444030Y-100543671D01*
X113435765Y-100520571D01*
X113429804Y-100496773D01*
X113426204Y-100472504D01*
X113425000Y-100448000D01*
X113425000Y-99523000D01*
X113426204Y-99498496D01*
X113429804Y-99474227D01*
X113435765Y-99450429D01*
X113444030Y-99427329D01*
X113454520Y-99405151D01*
X113467133Y-99384107D01*
X113481747Y-99364402D01*
X113498223Y-99346223D01*
X113516402Y-99329747D01*
X113536107Y-99315133D01*
X113557151Y-99302520D01*
X113579329Y-99292030D01*
X113602429Y-99283765D01*
X113626227Y-99277804D01*
X113650496Y-99274204D01*
X113675000Y-99273000D01*
X114925000Y-99273000D01*
X114949504Y-99274204D01*
X114949504Y-99274204D01*
G37*
D11*
X114300000Y-99985500D03*
D10*
G36*
X114949504Y-102249204D02*
X114973773Y-102252804D01*
X114997571Y-102258765D01*
X115020671Y-102267030D01*
X115042849Y-102277520D01*
X115063893Y-102290133D01*
X115083598Y-102304747D01*
X115101777Y-102321223D01*
X115118253Y-102339402D01*
X115132867Y-102359107D01*
X115145480Y-102380151D01*
X115155970Y-102402329D01*
X115164235Y-102425429D01*
X115170196Y-102449227D01*
X115173796Y-102473496D01*
X115175000Y-102498000D01*
X115175000Y-103423000D01*
X115173796Y-103447504D01*
X115170196Y-103471773D01*
X115164235Y-103495571D01*
X115155970Y-103518671D01*
X115145480Y-103540849D01*
X115132867Y-103561893D01*
X115118253Y-103581598D01*
X115101777Y-103599777D01*
X115083598Y-103616253D01*
X115063893Y-103630867D01*
X115042849Y-103643480D01*
X115020671Y-103653970D01*
X114997571Y-103662235D01*
X114973773Y-103668196D01*
X114949504Y-103671796D01*
X114925000Y-103673000D01*
X113675000Y-103673000D01*
X113650496Y-103671796D01*
X113626227Y-103668196D01*
X113602429Y-103662235D01*
X113579329Y-103653970D01*
X113557151Y-103643480D01*
X113536107Y-103630867D01*
X113516402Y-103616253D01*
X113498223Y-103599777D01*
X113481747Y-103581598D01*
X113467133Y-103561893D01*
X113454520Y-103540849D01*
X113444030Y-103518671D01*
X113435765Y-103495571D01*
X113429804Y-103471773D01*
X113426204Y-103447504D01*
X113425000Y-103423000D01*
X113425000Y-102498000D01*
X113426204Y-102473496D01*
X113429804Y-102449227D01*
X113435765Y-102425429D01*
X113444030Y-102402329D01*
X113454520Y-102380151D01*
X113467133Y-102359107D01*
X113481747Y-102339402D01*
X113498223Y-102321223D01*
X113516402Y-102304747D01*
X113536107Y-102290133D01*
X113557151Y-102277520D01*
X113579329Y-102267030D01*
X113602429Y-102258765D01*
X113626227Y-102252804D01*
X113650496Y-102249204D01*
X113675000Y-102248000D01*
X114925000Y-102248000D01*
X114949504Y-102249204D01*
X114949504Y-102249204D01*
G37*
D11*
X114300000Y-102960500D03*
G04 #@! TD*
D10*
G04 #@! TO.C,C3*
G36*
X128356505Y-96964204D02*
X128380773Y-96967804D01*
X128404572Y-96973765D01*
X128427671Y-96982030D01*
X128449850Y-96992520D01*
X128470893Y-97005132D01*
X128490599Y-97019747D01*
X128508777Y-97036223D01*
X128525253Y-97054401D01*
X128539868Y-97074107D01*
X128552480Y-97095150D01*
X128562970Y-97117329D01*
X128571235Y-97140428D01*
X128577196Y-97164227D01*
X128580796Y-97188495D01*
X128582000Y-97212999D01*
X128582000Y-98113001D01*
X128580796Y-98137505D01*
X128577196Y-98161773D01*
X128571235Y-98185572D01*
X128562970Y-98208671D01*
X128552480Y-98230850D01*
X128539868Y-98251893D01*
X128525253Y-98271599D01*
X128508777Y-98289777D01*
X128490599Y-98306253D01*
X128470893Y-98320868D01*
X128449850Y-98333480D01*
X128427671Y-98343970D01*
X128404572Y-98352235D01*
X128380773Y-98358196D01*
X128356505Y-98361796D01*
X128332001Y-98363000D01*
X127681999Y-98363000D01*
X127657495Y-98361796D01*
X127633227Y-98358196D01*
X127609428Y-98352235D01*
X127586329Y-98343970D01*
X127564150Y-98333480D01*
X127543107Y-98320868D01*
X127523401Y-98306253D01*
X127505223Y-98289777D01*
X127488747Y-98271599D01*
X127474132Y-98251893D01*
X127461520Y-98230850D01*
X127451030Y-98208671D01*
X127442765Y-98185572D01*
X127436804Y-98161773D01*
X127433204Y-98137505D01*
X127432000Y-98113001D01*
X127432000Y-97212999D01*
X127433204Y-97188495D01*
X127436804Y-97164227D01*
X127442765Y-97140428D01*
X127451030Y-97117329D01*
X127461520Y-97095150D01*
X127474132Y-97074107D01*
X127488747Y-97054401D01*
X127505223Y-97036223D01*
X127523401Y-97019747D01*
X127543107Y-97005132D01*
X127564150Y-96992520D01*
X127586329Y-96982030D01*
X127609428Y-96973765D01*
X127633227Y-96967804D01*
X127657495Y-96964204D01*
X127681999Y-96963000D01*
X128332001Y-96963000D01*
X128356505Y-96964204D01*
X128356505Y-96964204D01*
G37*
D12*
X128007000Y-97663000D03*
D10*
G36*
X130406505Y-96964204D02*
X130430773Y-96967804D01*
X130454572Y-96973765D01*
X130477671Y-96982030D01*
X130499850Y-96992520D01*
X130520893Y-97005132D01*
X130540599Y-97019747D01*
X130558777Y-97036223D01*
X130575253Y-97054401D01*
X130589868Y-97074107D01*
X130602480Y-97095150D01*
X130612970Y-97117329D01*
X130621235Y-97140428D01*
X130627196Y-97164227D01*
X130630796Y-97188495D01*
X130632000Y-97212999D01*
X130632000Y-98113001D01*
X130630796Y-98137505D01*
X130627196Y-98161773D01*
X130621235Y-98185572D01*
X130612970Y-98208671D01*
X130602480Y-98230850D01*
X130589868Y-98251893D01*
X130575253Y-98271599D01*
X130558777Y-98289777D01*
X130540599Y-98306253D01*
X130520893Y-98320868D01*
X130499850Y-98333480D01*
X130477671Y-98343970D01*
X130454572Y-98352235D01*
X130430773Y-98358196D01*
X130406505Y-98361796D01*
X130382001Y-98363000D01*
X129731999Y-98363000D01*
X129707495Y-98361796D01*
X129683227Y-98358196D01*
X129659428Y-98352235D01*
X129636329Y-98343970D01*
X129614150Y-98333480D01*
X129593107Y-98320868D01*
X129573401Y-98306253D01*
X129555223Y-98289777D01*
X129538747Y-98271599D01*
X129524132Y-98251893D01*
X129511520Y-98230850D01*
X129501030Y-98208671D01*
X129492765Y-98185572D01*
X129486804Y-98161773D01*
X129483204Y-98137505D01*
X129482000Y-98113001D01*
X129482000Y-97212999D01*
X129483204Y-97188495D01*
X129486804Y-97164227D01*
X129492765Y-97140428D01*
X129501030Y-97117329D01*
X129511520Y-97095150D01*
X129524132Y-97074107D01*
X129538747Y-97054401D01*
X129555223Y-97036223D01*
X129573401Y-97019747D01*
X129593107Y-97005132D01*
X129614150Y-96992520D01*
X129636329Y-96982030D01*
X129659428Y-96973765D01*
X129683227Y-96967804D01*
X129707495Y-96964204D01*
X129731999Y-96963000D01*
X130382001Y-96963000D01*
X130406505Y-96964204D01*
X130406505Y-96964204D01*
G37*
D12*
X130057000Y-97663000D03*
G04 #@! TD*
D10*
G04 #@! TO.C,C2*
G36*
X123054279Y-90087719D02*
X123078548Y-90091319D01*
X123102346Y-90097280D01*
X123125446Y-90105545D01*
X123147624Y-90116035D01*
X123168668Y-90128648D01*
X123188373Y-90143262D01*
X123206552Y-90159738D01*
X123223028Y-90177917D01*
X123237642Y-90197622D01*
X123250255Y-90218666D01*
X123260745Y-90240844D01*
X123269010Y-90263944D01*
X123274971Y-90287742D01*
X123278571Y-90312011D01*
X123279775Y-90336515D01*
X123279775Y-91261515D01*
X123278571Y-91286019D01*
X123274971Y-91310288D01*
X123269010Y-91334086D01*
X123260745Y-91357186D01*
X123250255Y-91379364D01*
X123237642Y-91400408D01*
X123223028Y-91420113D01*
X123206552Y-91438292D01*
X123188373Y-91454768D01*
X123168668Y-91469382D01*
X123147624Y-91481995D01*
X123125446Y-91492485D01*
X123102346Y-91500750D01*
X123078548Y-91506711D01*
X123054279Y-91510311D01*
X123029775Y-91511515D01*
X121779775Y-91511515D01*
X121755271Y-91510311D01*
X121731002Y-91506711D01*
X121707204Y-91500750D01*
X121684104Y-91492485D01*
X121661926Y-91481995D01*
X121640882Y-91469382D01*
X121621177Y-91454768D01*
X121602998Y-91438292D01*
X121586522Y-91420113D01*
X121571908Y-91400408D01*
X121559295Y-91379364D01*
X121548805Y-91357186D01*
X121540540Y-91334086D01*
X121534579Y-91310288D01*
X121530979Y-91286019D01*
X121529775Y-91261515D01*
X121529775Y-90336515D01*
X121530979Y-90312011D01*
X121534579Y-90287742D01*
X121540540Y-90263944D01*
X121548805Y-90240844D01*
X121559295Y-90218666D01*
X121571908Y-90197622D01*
X121586522Y-90177917D01*
X121602998Y-90159738D01*
X121621177Y-90143262D01*
X121640882Y-90128648D01*
X121661926Y-90116035D01*
X121684104Y-90105545D01*
X121707204Y-90097280D01*
X121731002Y-90091319D01*
X121755271Y-90087719D01*
X121779775Y-90086515D01*
X123029775Y-90086515D01*
X123054279Y-90087719D01*
X123054279Y-90087719D01*
G37*
D11*
X122404775Y-90799015D03*
D10*
G36*
X123054279Y-87112719D02*
X123078548Y-87116319D01*
X123102346Y-87122280D01*
X123125446Y-87130545D01*
X123147624Y-87141035D01*
X123168668Y-87153648D01*
X123188373Y-87168262D01*
X123206552Y-87184738D01*
X123223028Y-87202917D01*
X123237642Y-87222622D01*
X123250255Y-87243666D01*
X123260745Y-87265844D01*
X123269010Y-87288944D01*
X123274971Y-87312742D01*
X123278571Y-87337011D01*
X123279775Y-87361515D01*
X123279775Y-88286515D01*
X123278571Y-88311019D01*
X123274971Y-88335288D01*
X123269010Y-88359086D01*
X123260745Y-88382186D01*
X123250255Y-88404364D01*
X123237642Y-88425408D01*
X123223028Y-88445113D01*
X123206552Y-88463292D01*
X123188373Y-88479768D01*
X123168668Y-88494382D01*
X123147624Y-88506995D01*
X123125446Y-88517485D01*
X123102346Y-88525750D01*
X123078548Y-88531711D01*
X123054279Y-88535311D01*
X123029775Y-88536515D01*
X121779775Y-88536515D01*
X121755271Y-88535311D01*
X121731002Y-88531711D01*
X121707204Y-88525750D01*
X121684104Y-88517485D01*
X121661926Y-88506995D01*
X121640882Y-88494382D01*
X121621177Y-88479768D01*
X121602998Y-88463292D01*
X121586522Y-88445113D01*
X121571908Y-88425408D01*
X121559295Y-88404364D01*
X121548805Y-88382186D01*
X121540540Y-88359086D01*
X121534579Y-88335288D01*
X121530979Y-88311019D01*
X121529775Y-88286515D01*
X121529775Y-87361515D01*
X121530979Y-87337011D01*
X121534579Y-87312742D01*
X121540540Y-87288944D01*
X121548805Y-87265844D01*
X121559295Y-87243666D01*
X121571908Y-87222622D01*
X121586522Y-87202917D01*
X121602998Y-87184738D01*
X121621177Y-87168262D01*
X121640882Y-87153648D01*
X121661926Y-87141035D01*
X121684104Y-87130545D01*
X121707204Y-87122280D01*
X121731002Y-87116319D01*
X121755271Y-87112719D01*
X121779775Y-87111515D01*
X123029775Y-87111515D01*
X123054279Y-87112719D01*
X123054279Y-87112719D01*
G37*
D11*
X122404775Y-87824015D03*
G04 #@! TD*
D10*
G04 #@! TO.C,C1*
G36*
X123077504Y-92289204D02*
X123101773Y-92292804D01*
X123125571Y-92298765D01*
X123148671Y-92307030D01*
X123170849Y-92317520D01*
X123191893Y-92330133D01*
X123211598Y-92344747D01*
X123229777Y-92361223D01*
X123246253Y-92379402D01*
X123260867Y-92399107D01*
X123273480Y-92420151D01*
X123283970Y-92442329D01*
X123292235Y-92465429D01*
X123298196Y-92489227D01*
X123301796Y-92513496D01*
X123303000Y-92538000D01*
X123303000Y-93463000D01*
X123301796Y-93487504D01*
X123298196Y-93511773D01*
X123292235Y-93535571D01*
X123283970Y-93558671D01*
X123273480Y-93580849D01*
X123260867Y-93601893D01*
X123246253Y-93621598D01*
X123229777Y-93639777D01*
X123211598Y-93656253D01*
X123191893Y-93670867D01*
X123170849Y-93683480D01*
X123148671Y-93693970D01*
X123125571Y-93702235D01*
X123101773Y-93708196D01*
X123077504Y-93711796D01*
X123053000Y-93713000D01*
X121803000Y-93713000D01*
X121778496Y-93711796D01*
X121754227Y-93708196D01*
X121730429Y-93702235D01*
X121707329Y-93693970D01*
X121685151Y-93683480D01*
X121664107Y-93670867D01*
X121644402Y-93656253D01*
X121626223Y-93639777D01*
X121609747Y-93621598D01*
X121595133Y-93601893D01*
X121582520Y-93580849D01*
X121572030Y-93558671D01*
X121563765Y-93535571D01*
X121557804Y-93511773D01*
X121554204Y-93487504D01*
X121553000Y-93463000D01*
X121553000Y-92538000D01*
X121554204Y-92513496D01*
X121557804Y-92489227D01*
X121563765Y-92465429D01*
X121572030Y-92442329D01*
X121582520Y-92420151D01*
X121595133Y-92399107D01*
X121609747Y-92379402D01*
X121626223Y-92361223D01*
X121644402Y-92344747D01*
X121664107Y-92330133D01*
X121685151Y-92317520D01*
X121707329Y-92307030D01*
X121730429Y-92298765D01*
X121754227Y-92292804D01*
X121778496Y-92289204D01*
X121803000Y-92288000D01*
X123053000Y-92288000D01*
X123077504Y-92289204D01*
X123077504Y-92289204D01*
G37*
D11*
X122428000Y-93000500D03*
D10*
G36*
X123077504Y-95264204D02*
X123101773Y-95267804D01*
X123125571Y-95273765D01*
X123148671Y-95282030D01*
X123170849Y-95292520D01*
X123191893Y-95305133D01*
X123211598Y-95319747D01*
X123229777Y-95336223D01*
X123246253Y-95354402D01*
X123260867Y-95374107D01*
X123273480Y-95395151D01*
X123283970Y-95417329D01*
X123292235Y-95440429D01*
X123298196Y-95464227D01*
X123301796Y-95488496D01*
X123303000Y-95513000D01*
X123303000Y-96438000D01*
X123301796Y-96462504D01*
X123298196Y-96486773D01*
X123292235Y-96510571D01*
X123283970Y-96533671D01*
X123273480Y-96555849D01*
X123260867Y-96576893D01*
X123246253Y-96596598D01*
X123229777Y-96614777D01*
X123211598Y-96631253D01*
X123191893Y-96645867D01*
X123170849Y-96658480D01*
X123148671Y-96668970D01*
X123125571Y-96677235D01*
X123101773Y-96683196D01*
X123077504Y-96686796D01*
X123053000Y-96688000D01*
X121803000Y-96688000D01*
X121778496Y-96686796D01*
X121754227Y-96683196D01*
X121730429Y-96677235D01*
X121707329Y-96668970D01*
X121685151Y-96658480D01*
X121664107Y-96645867D01*
X121644402Y-96631253D01*
X121626223Y-96614777D01*
X121609747Y-96596598D01*
X121595133Y-96576893D01*
X121582520Y-96555849D01*
X121572030Y-96533671D01*
X121563765Y-96510571D01*
X121557804Y-96486773D01*
X121554204Y-96462504D01*
X121553000Y-96438000D01*
X121553000Y-95513000D01*
X121554204Y-95488496D01*
X121557804Y-95464227D01*
X121563765Y-95440429D01*
X121572030Y-95417329D01*
X121582520Y-95395151D01*
X121595133Y-95374107D01*
X121609747Y-95354402D01*
X121626223Y-95336223D01*
X121644402Y-95319747D01*
X121664107Y-95305133D01*
X121685151Y-95292520D01*
X121707329Y-95282030D01*
X121730429Y-95273765D01*
X121754227Y-95267804D01*
X121778496Y-95264204D01*
X121803000Y-95263000D01*
X123053000Y-95263000D01*
X123077504Y-95264204D01*
X123077504Y-95264204D01*
G37*
D11*
X122428000Y-95975500D03*
G04 #@! TD*
D10*
G04 #@! TO.C,D1*
G36*
X128539504Y-99075204D02*
X128563773Y-99078804D01*
X128587571Y-99084765D01*
X128610671Y-99093030D01*
X128632849Y-99103520D01*
X128653893Y-99116133D01*
X128673598Y-99130747D01*
X128691777Y-99147223D01*
X128708253Y-99165402D01*
X128722867Y-99185107D01*
X128735480Y-99206151D01*
X128745970Y-99228329D01*
X128754235Y-99251429D01*
X128760196Y-99275227D01*
X128763796Y-99299496D01*
X128765000Y-99324000D01*
X128765000Y-100574000D01*
X128763796Y-100598504D01*
X128760196Y-100622773D01*
X128754235Y-100646571D01*
X128745970Y-100669671D01*
X128735480Y-100691849D01*
X128722867Y-100712893D01*
X128708253Y-100732598D01*
X128691777Y-100750777D01*
X128673598Y-100767253D01*
X128653893Y-100781867D01*
X128632849Y-100794480D01*
X128610671Y-100804970D01*
X128587571Y-100813235D01*
X128563773Y-100819196D01*
X128539504Y-100822796D01*
X128515000Y-100824000D01*
X127590000Y-100824000D01*
X127565496Y-100822796D01*
X127541227Y-100819196D01*
X127517429Y-100813235D01*
X127494329Y-100804970D01*
X127472151Y-100794480D01*
X127451107Y-100781867D01*
X127431402Y-100767253D01*
X127413223Y-100750777D01*
X127396747Y-100732598D01*
X127382133Y-100712893D01*
X127369520Y-100691849D01*
X127359030Y-100669671D01*
X127350765Y-100646571D01*
X127344804Y-100622773D01*
X127341204Y-100598504D01*
X127340000Y-100574000D01*
X127340000Y-99324000D01*
X127341204Y-99299496D01*
X127344804Y-99275227D01*
X127350765Y-99251429D01*
X127359030Y-99228329D01*
X127369520Y-99206151D01*
X127382133Y-99185107D01*
X127396747Y-99165402D01*
X127413223Y-99147223D01*
X127431402Y-99130747D01*
X127451107Y-99116133D01*
X127472151Y-99103520D01*
X127494329Y-99093030D01*
X127517429Y-99084765D01*
X127541227Y-99078804D01*
X127565496Y-99075204D01*
X127590000Y-99074000D01*
X128515000Y-99074000D01*
X128539504Y-99075204D01*
X128539504Y-99075204D01*
G37*
D11*
X128052500Y-99949000D03*
D10*
G36*
X131514504Y-99075204D02*
X131538773Y-99078804D01*
X131562571Y-99084765D01*
X131585671Y-99093030D01*
X131607849Y-99103520D01*
X131628893Y-99116133D01*
X131648598Y-99130747D01*
X131666777Y-99147223D01*
X131683253Y-99165402D01*
X131697867Y-99185107D01*
X131710480Y-99206151D01*
X131720970Y-99228329D01*
X131729235Y-99251429D01*
X131735196Y-99275227D01*
X131738796Y-99299496D01*
X131740000Y-99324000D01*
X131740000Y-100574000D01*
X131738796Y-100598504D01*
X131735196Y-100622773D01*
X131729235Y-100646571D01*
X131720970Y-100669671D01*
X131710480Y-100691849D01*
X131697867Y-100712893D01*
X131683253Y-100732598D01*
X131666777Y-100750777D01*
X131648598Y-100767253D01*
X131628893Y-100781867D01*
X131607849Y-100794480D01*
X131585671Y-100804970D01*
X131562571Y-100813235D01*
X131538773Y-100819196D01*
X131514504Y-100822796D01*
X131490000Y-100824000D01*
X130565000Y-100824000D01*
X130540496Y-100822796D01*
X130516227Y-100819196D01*
X130492429Y-100813235D01*
X130469329Y-100804970D01*
X130447151Y-100794480D01*
X130426107Y-100781867D01*
X130406402Y-100767253D01*
X130388223Y-100750777D01*
X130371747Y-100732598D01*
X130357133Y-100712893D01*
X130344520Y-100691849D01*
X130334030Y-100669671D01*
X130325765Y-100646571D01*
X130319804Y-100622773D01*
X130316204Y-100598504D01*
X130315000Y-100574000D01*
X130315000Y-99324000D01*
X130316204Y-99299496D01*
X130319804Y-99275227D01*
X130325765Y-99251429D01*
X130334030Y-99228329D01*
X130344520Y-99206151D01*
X130357133Y-99185107D01*
X130371747Y-99165402D01*
X130388223Y-99147223D01*
X130406402Y-99130747D01*
X130426107Y-99116133D01*
X130447151Y-99103520D01*
X130469329Y-99093030D01*
X130492429Y-99084765D01*
X130516227Y-99078804D01*
X130540496Y-99075204D01*
X130565000Y-99074000D01*
X131490000Y-99074000D01*
X131514504Y-99075204D01*
X131514504Y-99075204D01*
G37*
D11*
X131027500Y-99949000D03*
G04 #@! TD*
D13*
G04 #@! TO.C,U2*
X119944775Y-87853515D03*
X119944775Y-89753515D03*
X117244775Y-89753515D03*
X117244775Y-88803515D03*
X117244775Y-87853515D03*
G04 #@! TD*
G04 #@! TO.C,U1*
X117268000Y-93030000D03*
X117268000Y-93980000D03*
X117268000Y-94930000D03*
X119968000Y-94930000D03*
X119968000Y-93030000D03*
G04 #@! TD*
D10*
G04 #@! TO.C,R5*
G36*
X126763213Y-107693897D02*
X126787481Y-107697497D01*
X126811280Y-107703458D01*
X126834379Y-107711723D01*
X126856558Y-107722213D01*
X126877601Y-107734825D01*
X126897307Y-107749440D01*
X126915485Y-107765916D01*
X126931961Y-107784094D01*
X126946576Y-107803800D01*
X126959188Y-107824843D01*
X126969678Y-107847022D01*
X126977943Y-107870121D01*
X126983904Y-107893920D01*
X126987504Y-107918188D01*
X126988708Y-107942692D01*
X126988708Y-108592694D01*
X126987504Y-108617198D01*
X126983904Y-108641466D01*
X126977943Y-108665265D01*
X126969678Y-108688364D01*
X126959188Y-108710543D01*
X126946576Y-108731586D01*
X126931961Y-108751292D01*
X126915485Y-108769470D01*
X126897307Y-108785946D01*
X126877601Y-108800561D01*
X126856558Y-108813173D01*
X126834379Y-108823663D01*
X126811280Y-108831928D01*
X126787481Y-108837889D01*
X126763213Y-108841489D01*
X126738709Y-108842693D01*
X125838707Y-108842693D01*
X125814203Y-108841489D01*
X125789935Y-108837889D01*
X125766136Y-108831928D01*
X125743037Y-108823663D01*
X125720858Y-108813173D01*
X125699815Y-108800561D01*
X125680109Y-108785946D01*
X125661931Y-108769470D01*
X125645455Y-108751292D01*
X125630840Y-108731586D01*
X125618228Y-108710543D01*
X125607738Y-108688364D01*
X125599473Y-108665265D01*
X125593512Y-108641466D01*
X125589912Y-108617198D01*
X125588708Y-108592694D01*
X125588708Y-107942692D01*
X125589912Y-107918188D01*
X125593512Y-107893920D01*
X125599473Y-107870121D01*
X125607738Y-107847022D01*
X125618228Y-107824843D01*
X125630840Y-107803800D01*
X125645455Y-107784094D01*
X125661931Y-107765916D01*
X125680109Y-107749440D01*
X125699815Y-107734825D01*
X125720858Y-107722213D01*
X125743037Y-107711723D01*
X125766136Y-107703458D01*
X125789935Y-107697497D01*
X125814203Y-107693897D01*
X125838707Y-107692693D01*
X126738709Y-107692693D01*
X126763213Y-107693897D01*
X126763213Y-107693897D01*
G37*
D12*
X126288708Y-108267693D03*
D10*
G36*
X126763213Y-105643897D02*
X126787481Y-105647497D01*
X126811280Y-105653458D01*
X126834379Y-105661723D01*
X126856558Y-105672213D01*
X126877601Y-105684825D01*
X126897307Y-105699440D01*
X126915485Y-105715916D01*
X126931961Y-105734094D01*
X126946576Y-105753800D01*
X126959188Y-105774843D01*
X126969678Y-105797022D01*
X126977943Y-105820121D01*
X126983904Y-105843920D01*
X126987504Y-105868188D01*
X126988708Y-105892692D01*
X126988708Y-106542694D01*
X126987504Y-106567198D01*
X126983904Y-106591466D01*
X126977943Y-106615265D01*
X126969678Y-106638364D01*
X126959188Y-106660543D01*
X126946576Y-106681586D01*
X126931961Y-106701292D01*
X126915485Y-106719470D01*
X126897307Y-106735946D01*
X126877601Y-106750561D01*
X126856558Y-106763173D01*
X126834379Y-106773663D01*
X126811280Y-106781928D01*
X126787481Y-106787889D01*
X126763213Y-106791489D01*
X126738709Y-106792693D01*
X125838707Y-106792693D01*
X125814203Y-106791489D01*
X125789935Y-106787889D01*
X125766136Y-106781928D01*
X125743037Y-106773663D01*
X125720858Y-106763173D01*
X125699815Y-106750561D01*
X125680109Y-106735946D01*
X125661931Y-106719470D01*
X125645455Y-106701292D01*
X125630840Y-106681586D01*
X125618228Y-106660543D01*
X125607738Y-106638364D01*
X125599473Y-106615265D01*
X125593512Y-106591466D01*
X125589912Y-106567198D01*
X125588708Y-106542694D01*
X125588708Y-105892692D01*
X125589912Y-105868188D01*
X125593512Y-105843920D01*
X125599473Y-105820121D01*
X125607738Y-105797022D01*
X125618228Y-105774843D01*
X125630840Y-105753800D01*
X125645455Y-105734094D01*
X125661931Y-105715916D01*
X125680109Y-105699440D01*
X125699815Y-105684825D01*
X125720858Y-105672213D01*
X125743037Y-105661723D01*
X125766136Y-105653458D01*
X125789935Y-105647497D01*
X125814203Y-105643897D01*
X125838707Y-105642693D01*
X126738709Y-105642693D01*
X126763213Y-105643897D01*
X126763213Y-105643897D01*
G37*
D12*
X126288708Y-106217693D03*
G04 #@! TD*
D10*
G04 #@! TO.C,R4*
G36*
X111853505Y-101924204D02*
X111877773Y-101927804D01*
X111901572Y-101933765D01*
X111924671Y-101942030D01*
X111946850Y-101952520D01*
X111967893Y-101965132D01*
X111987599Y-101979747D01*
X112005777Y-101996223D01*
X112022253Y-102014401D01*
X112036868Y-102034107D01*
X112049480Y-102055150D01*
X112059970Y-102077329D01*
X112068235Y-102100428D01*
X112074196Y-102124227D01*
X112077796Y-102148495D01*
X112079000Y-102172999D01*
X112079000Y-102823001D01*
X112077796Y-102847505D01*
X112074196Y-102871773D01*
X112068235Y-102895572D01*
X112059970Y-102918671D01*
X112049480Y-102940850D01*
X112036868Y-102961893D01*
X112022253Y-102981599D01*
X112005777Y-102999777D01*
X111987599Y-103016253D01*
X111967893Y-103030868D01*
X111946850Y-103043480D01*
X111924671Y-103053970D01*
X111901572Y-103062235D01*
X111877773Y-103068196D01*
X111853505Y-103071796D01*
X111829001Y-103073000D01*
X110928999Y-103073000D01*
X110904495Y-103071796D01*
X110880227Y-103068196D01*
X110856428Y-103062235D01*
X110833329Y-103053970D01*
X110811150Y-103043480D01*
X110790107Y-103030868D01*
X110770401Y-103016253D01*
X110752223Y-102999777D01*
X110735747Y-102981599D01*
X110721132Y-102961893D01*
X110708520Y-102940850D01*
X110698030Y-102918671D01*
X110689765Y-102895572D01*
X110683804Y-102871773D01*
X110680204Y-102847505D01*
X110679000Y-102823001D01*
X110679000Y-102172999D01*
X110680204Y-102148495D01*
X110683804Y-102124227D01*
X110689765Y-102100428D01*
X110698030Y-102077329D01*
X110708520Y-102055150D01*
X110721132Y-102034107D01*
X110735747Y-102014401D01*
X110752223Y-101996223D01*
X110770401Y-101979747D01*
X110790107Y-101965132D01*
X110811150Y-101952520D01*
X110833329Y-101942030D01*
X110856428Y-101933765D01*
X110880227Y-101927804D01*
X110904495Y-101924204D01*
X110928999Y-101923000D01*
X111829001Y-101923000D01*
X111853505Y-101924204D01*
X111853505Y-101924204D01*
G37*
D12*
X111379000Y-102498000D03*
D10*
G36*
X111853505Y-99874204D02*
X111877773Y-99877804D01*
X111901572Y-99883765D01*
X111924671Y-99892030D01*
X111946850Y-99902520D01*
X111967893Y-99915132D01*
X111987599Y-99929747D01*
X112005777Y-99946223D01*
X112022253Y-99964401D01*
X112036868Y-99984107D01*
X112049480Y-100005150D01*
X112059970Y-100027329D01*
X112068235Y-100050428D01*
X112074196Y-100074227D01*
X112077796Y-100098495D01*
X112079000Y-100122999D01*
X112079000Y-100773001D01*
X112077796Y-100797505D01*
X112074196Y-100821773D01*
X112068235Y-100845572D01*
X112059970Y-100868671D01*
X112049480Y-100890850D01*
X112036868Y-100911893D01*
X112022253Y-100931599D01*
X112005777Y-100949777D01*
X111987599Y-100966253D01*
X111967893Y-100980868D01*
X111946850Y-100993480D01*
X111924671Y-101003970D01*
X111901572Y-101012235D01*
X111877773Y-101018196D01*
X111853505Y-101021796D01*
X111829001Y-101023000D01*
X110928999Y-101023000D01*
X110904495Y-101021796D01*
X110880227Y-101018196D01*
X110856428Y-101012235D01*
X110833329Y-101003970D01*
X110811150Y-100993480D01*
X110790107Y-100980868D01*
X110770401Y-100966253D01*
X110752223Y-100949777D01*
X110735747Y-100931599D01*
X110721132Y-100911893D01*
X110708520Y-100890850D01*
X110698030Y-100868671D01*
X110689765Y-100845572D01*
X110683804Y-100821773D01*
X110680204Y-100797505D01*
X110679000Y-100773001D01*
X110679000Y-100122999D01*
X110680204Y-100098495D01*
X110683804Y-100074227D01*
X110689765Y-100050428D01*
X110698030Y-100027329D01*
X110708520Y-100005150D01*
X110721132Y-99984107D01*
X110735747Y-99964401D01*
X110752223Y-99946223D01*
X110770401Y-99929747D01*
X110790107Y-99915132D01*
X110811150Y-99902520D01*
X110833329Y-99892030D01*
X110856428Y-99883765D01*
X110880227Y-99877804D01*
X110904495Y-99874204D01*
X110928999Y-99873000D01*
X111829001Y-99873000D01*
X111853505Y-99874204D01*
X111853505Y-99874204D01*
G37*
D12*
X111379000Y-100448000D03*
G04 #@! TD*
D10*
G04 #@! TO.C,R3*
G36*
X109440505Y-99874204D02*
X109464773Y-99877804D01*
X109488572Y-99883765D01*
X109511671Y-99892030D01*
X109533850Y-99902520D01*
X109554893Y-99915132D01*
X109574599Y-99929747D01*
X109592777Y-99946223D01*
X109609253Y-99964401D01*
X109623868Y-99984107D01*
X109636480Y-100005150D01*
X109646970Y-100027329D01*
X109655235Y-100050428D01*
X109661196Y-100074227D01*
X109664796Y-100098495D01*
X109666000Y-100122999D01*
X109666000Y-100773001D01*
X109664796Y-100797505D01*
X109661196Y-100821773D01*
X109655235Y-100845572D01*
X109646970Y-100868671D01*
X109636480Y-100890850D01*
X109623868Y-100911893D01*
X109609253Y-100931599D01*
X109592777Y-100949777D01*
X109574599Y-100966253D01*
X109554893Y-100980868D01*
X109533850Y-100993480D01*
X109511671Y-101003970D01*
X109488572Y-101012235D01*
X109464773Y-101018196D01*
X109440505Y-101021796D01*
X109416001Y-101023000D01*
X108515999Y-101023000D01*
X108491495Y-101021796D01*
X108467227Y-101018196D01*
X108443428Y-101012235D01*
X108420329Y-101003970D01*
X108398150Y-100993480D01*
X108377107Y-100980868D01*
X108357401Y-100966253D01*
X108339223Y-100949777D01*
X108322747Y-100931599D01*
X108308132Y-100911893D01*
X108295520Y-100890850D01*
X108285030Y-100868671D01*
X108276765Y-100845572D01*
X108270804Y-100821773D01*
X108267204Y-100797505D01*
X108266000Y-100773001D01*
X108266000Y-100122999D01*
X108267204Y-100098495D01*
X108270804Y-100074227D01*
X108276765Y-100050428D01*
X108285030Y-100027329D01*
X108295520Y-100005150D01*
X108308132Y-99984107D01*
X108322747Y-99964401D01*
X108339223Y-99946223D01*
X108357401Y-99929747D01*
X108377107Y-99915132D01*
X108398150Y-99902520D01*
X108420329Y-99892030D01*
X108443428Y-99883765D01*
X108467227Y-99877804D01*
X108491495Y-99874204D01*
X108515999Y-99873000D01*
X109416001Y-99873000D01*
X109440505Y-99874204D01*
X109440505Y-99874204D01*
G37*
D12*
X108966000Y-100448000D03*
D10*
G36*
X109440505Y-101924204D02*
X109464773Y-101927804D01*
X109488572Y-101933765D01*
X109511671Y-101942030D01*
X109533850Y-101952520D01*
X109554893Y-101965132D01*
X109574599Y-101979747D01*
X109592777Y-101996223D01*
X109609253Y-102014401D01*
X109623868Y-102034107D01*
X109636480Y-102055150D01*
X109646970Y-102077329D01*
X109655235Y-102100428D01*
X109661196Y-102124227D01*
X109664796Y-102148495D01*
X109666000Y-102172999D01*
X109666000Y-102823001D01*
X109664796Y-102847505D01*
X109661196Y-102871773D01*
X109655235Y-102895572D01*
X109646970Y-102918671D01*
X109636480Y-102940850D01*
X109623868Y-102961893D01*
X109609253Y-102981599D01*
X109592777Y-102999777D01*
X109574599Y-103016253D01*
X109554893Y-103030868D01*
X109533850Y-103043480D01*
X109511671Y-103053970D01*
X109488572Y-103062235D01*
X109464773Y-103068196D01*
X109440505Y-103071796D01*
X109416001Y-103073000D01*
X108515999Y-103073000D01*
X108491495Y-103071796D01*
X108467227Y-103068196D01*
X108443428Y-103062235D01*
X108420329Y-103053970D01*
X108398150Y-103043480D01*
X108377107Y-103030868D01*
X108357401Y-103016253D01*
X108339223Y-102999777D01*
X108322747Y-102981599D01*
X108308132Y-102961893D01*
X108295520Y-102940850D01*
X108285030Y-102918671D01*
X108276765Y-102895572D01*
X108270804Y-102871773D01*
X108267204Y-102847505D01*
X108266000Y-102823001D01*
X108266000Y-102172999D01*
X108267204Y-102148495D01*
X108270804Y-102124227D01*
X108276765Y-102100428D01*
X108285030Y-102077329D01*
X108295520Y-102055150D01*
X108308132Y-102034107D01*
X108322747Y-102014401D01*
X108339223Y-101996223D01*
X108357401Y-101979747D01*
X108377107Y-101965132D01*
X108398150Y-101952520D01*
X108420329Y-101942030D01*
X108443428Y-101933765D01*
X108467227Y-101927804D01*
X108491495Y-101924204D01*
X108515999Y-101923000D01*
X109416001Y-101923000D01*
X109440505Y-101924204D01*
X109440505Y-101924204D01*
G37*
D12*
X108966000Y-102498000D03*
G04 #@! TD*
D10*
G04 #@! TO.C,R2*
G36*
X125823505Y-90984204D02*
X125847773Y-90987804D01*
X125871572Y-90993765D01*
X125894671Y-91002030D01*
X125916850Y-91012520D01*
X125937893Y-91025132D01*
X125957599Y-91039747D01*
X125975777Y-91056223D01*
X125992253Y-91074401D01*
X126006868Y-91094107D01*
X126019480Y-91115150D01*
X126029970Y-91137329D01*
X126038235Y-91160428D01*
X126044196Y-91184227D01*
X126047796Y-91208495D01*
X126049000Y-91232999D01*
X126049000Y-91883001D01*
X126047796Y-91907505D01*
X126044196Y-91931773D01*
X126038235Y-91955572D01*
X126029970Y-91978671D01*
X126019480Y-92000850D01*
X126006868Y-92021893D01*
X125992253Y-92041599D01*
X125975777Y-92059777D01*
X125957599Y-92076253D01*
X125937893Y-92090868D01*
X125916850Y-92103480D01*
X125894671Y-92113970D01*
X125871572Y-92122235D01*
X125847773Y-92128196D01*
X125823505Y-92131796D01*
X125799001Y-92133000D01*
X124898999Y-92133000D01*
X124874495Y-92131796D01*
X124850227Y-92128196D01*
X124826428Y-92122235D01*
X124803329Y-92113970D01*
X124781150Y-92103480D01*
X124760107Y-92090868D01*
X124740401Y-92076253D01*
X124722223Y-92059777D01*
X124705747Y-92041599D01*
X124691132Y-92021893D01*
X124678520Y-92000850D01*
X124668030Y-91978671D01*
X124659765Y-91955572D01*
X124653804Y-91931773D01*
X124650204Y-91907505D01*
X124649000Y-91883001D01*
X124649000Y-91232999D01*
X124650204Y-91208495D01*
X124653804Y-91184227D01*
X124659765Y-91160428D01*
X124668030Y-91137329D01*
X124678520Y-91115150D01*
X124691132Y-91094107D01*
X124705747Y-91074401D01*
X124722223Y-91056223D01*
X124740401Y-91039747D01*
X124760107Y-91025132D01*
X124781150Y-91012520D01*
X124803329Y-91002030D01*
X124826428Y-90993765D01*
X124850227Y-90987804D01*
X124874495Y-90984204D01*
X124898999Y-90983000D01*
X125799001Y-90983000D01*
X125823505Y-90984204D01*
X125823505Y-90984204D01*
G37*
D12*
X125349000Y-91558000D03*
D10*
G36*
X125823505Y-93034204D02*
X125847773Y-93037804D01*
X125871572Y-93043765D01*
X125894671Y-93052030D01*
X125916850Y-93062520D01*
X125937893Y-93075132D01*
X125957599Y-93089747D01*
X125975777Y-93106223D01*
X125992253Y-93124401D01*
X126006868Y-93144107D01*
X126019480Y-93165150D01*
X126029970Y-93187329D01*
X126038235Y-93210428D01*
X126044196Y-93234227D01*
X126047796Y-93258495D01*
X126049000Y-93282999D01*
X126049000Y-93933001D01*
X126047796Y-93957505D01*
X126044196Y-93981773D01*
X126038235Y-94005572D01*
X126029970Y-94028671D01*
X126019480Y-94050850D01*
X126006868Y-94071893D01*
X125992253Y-94091599D01*
X125975777Y-94109777D01*
X125957599Y-94126253D01*
X125937893Y-94140868D01*
X125916850Y-94153480D01*
X125894671Y-94163970D01*
X125871572Y-94172235D01*
X125847773Y-94178196D01*
X125823505Y-94181796D01*
X125799001Y-94183000D01*
X124898999Y-94183000D01*
X124874495Y-94181796D01*
X124850227Y-94178196D01*
X124826428Y-94172235D01*
X124803329Y-94163970D01*
X124781150Y-94153480D01*
X124760107Y-94140868D01*
X124740401Y-94126253D01*
X124722223Y-94109777D01*
X124705747Y-94091599D01*
X124691132Y-94071893D01*
X124678520Y-94050850D01*
X124668030Y-94028671D01*
X124659765Y-94005572D01*
X124653804Y-93981773D01*
X124650204Y-93957505D01*
X124649000Y-93933001D01*
X124649000Y-93282999D01*
X124650204Y-93258495D01*
X124653804Y-93234227D01*
X124659765Y-93210428D01*
X124668030Y-93187329D01*
X124678520Y-93165150D01*
X124691132Y-93144107D01*
X124705747Y-93124401D01*
X124722223Y-93106223D01*
X124740401Y-93089747D01*
X124760107Y-93075132D01*
X124781150Y-93062520D01*
X124803329Y-93052030D01*
X124826428Y-93043765D01*
X124850227Y-93037804D01*
X124874495Y-93034204D01*
X124898999Y-93033000D01*
X125799001Y-93033000D01*
X125823505Y-93034204D01*
X125823505Y-93034204D01*
G37*
D12*
X125349000Y-93608000D03*
G04 #@! TD*
D10*
G04 #@! TO.C,R1*
G36*
X125823505Y-87174204D02*
X125847773Y-87177804D01*
X125871572Y-87183765D01*
X125894671Y-87192030D01*
X125916850Y-87202520D01*
X125937893Y-87215132D01*
X125957599Y-87229747D01*
X125975777Y-87246223D01*
X125992253Y-87264401D01*
X126006868Y-87284107D01*
X126019480Y-87305150D01*
X126029970Y-87327329D01*
X126038235Y-87350428D01*
X126044196Y-87374227D01*
X126047796Y-87398495D01*
X126049000Y-87422999D01*
X126049000Y-88073001D01*
X126047796Y-88097505D01*
X126044196Y-88121773D01*
X126038235Y-88145572D01*
X126029970Y-88168671D01*
X126019480Y-88190850D01*
X126006868Y-88211893D01*
X125992253Y-88231599D01*
X125975777Y-88249777D01*
X125957599Y-88266253D01*
X125937893Y-88280868D01*
X125916850Y-88293480D01*
X125894671Y-88303970D01*
X125871572Y-88312235D01*
X125847773Y-88318196D01*
X125823505Y-88321796D01*
X125799001Y-88323000D01*
X124898999Y-88323000D01*
X124874495Y-88321796D01*
X124850227Y-88318196D01*
X124826428Y-88312235D01*
X124803329Y-88303970D01*
X124781150Y-88293480D01*
X124760107Y-88280868D01*
X124740401Y-88266253D01*
X124722223Y-88249777D01*
X124705747Y-88231599D01*
X124691132Y-88211893D01*
X124678520Y-88190850D01*
X124668030Y-88168671D01*
X124659765Y-88145572D01*
X124653804Y-88121773D01*
X124650204Y-88097505D01*
X124649000Y-88073001D01*
X124649000Y-87422999D01*
X124650204Y-87398495D01*
X124653804Y-87374227D01*
X124659765Y-87350428D01*
X124668030Y-87327329D01*
X124678520Y-87305150D01*
X124691132Y-87284107D01*
X124705747Y-87264401D01*
X124722223Y-87246223D01*
X124740401Y-87229747D01*
X124760107Y-87215132D01*
X124781150Y-87202520D01*
X124803329Y-87192030D01*
X124826428Y-87183765D01*
X124850227Y-87177804D01*
X124874495Y-87174204D01*
X124898999Y-87173000D01*
X125799001Y-87173000D01*
X125823505Y-87174204D01*
X125823505Y-87174204D01*
G37*
D12*
X125349000Y-87748000D03*
D10*
G36*
X125823505Y-89224204D02*
X125847773Y-89227804D01*
X125871572Y-89233765D01*
X125894671Y-89242030D01*
X125916850Y-89252520D01*
X125937893Y-89265132D01*
X125957599Y-89279747D01*
X125975777Y-89296223D01*
X125992253Y-89314401D01*
X126006868Y-89334107D01*
X126019480Y-89355150D01*
X126029970Y-89377329D01*
X126038235Y-89400428D01*
X126044196Y-89424227D01*
X126047796Y-89448495D01*
X126049000Y-89472999D01*
X126049000Y-90123001D01*
X126047796Y-90147505D01*
X126044196Y-90171773D01*
X126038235Y-90195572D01*
X126029970Y-90218671D01*
X126019480Y-90240850D01*
X126006868Y-90261893D01*
X125992253Y-90281599D01*
X125975777Y-90299777D01*
X125957599Y-90316253D01*
X125937893Y-90330868D01*
X125916850Y-90343480D01*
X125894671Y-90353970D01*
X125871572Y-90362235D01*
X125847773Y-90368196D01*
X125823505Y-90371796D01*
X125799001Y-90373000D01*
X124898999Y-90373000D01*
X124874495Y-90371796D01*
X124850227Y-90368196D01*
X124826428Y-90362235D01*
X124803329Y-90353970D01*
X124781150Y-90343480D01*
X124760107Y-90330868D01*
X124740401Y-90316253D01*
X124722223Y-90299777D01*
X124705747Y-90281599D01*
X124691132Y-90261893D01*
X124678520Y-90240850D01*
X124668030Y-90218671D01*
X124659765Y-90195572D01*
X124653804Y-90171773D01*
X124650204Y-90147505D01*
X124649000Y-90123001D01*
X124649000Y-89472999D01*
X124650204Y-89448495D01*
X124653804Y-89424227D01*
X124659765Y-89400428D01*
X124668030Y-89377329D01*
X124678520Y-89355150D01*
X124691132Y-89334107D01*
X124705747Y-89314401D01*
X124722223Y-89296223D01*
X124740401Y-89279747D01*
X124760107Y-89265132D01*
X124781150Y-89252520D01*
X124803329Y-89242030D01*
X124826428Y-89233765D01*
X124850227Y-89227804D01*
X124874495Y-89224204D01*
X124898999Y-89223000D01*
X125799001Y-89223000D01*
X125823505Y-89224204D01*
X125823505Y-89224204D01*
G37*
D12*
X125349000Y-89798000D03*
G04 #@! TD*
D14*
G04 #@! TO.C,Q1*
X123724708Y-108065693D03*
X123724708Y-106165693D03*
X120724708Y-107115693D03*
G04 #@! TD*
D10*
G04 #@! TO.C,R6*
G36*
X123532470Y-103647776D02*
X123556738Y-103651376D01*
X123580537Y-103657337D01*
X123603636Y-103665602D01*
X123625815Y-103676092D01*
X123646858Y-103688704D01*
X123666564Y-103703319D01*
X123684742Y-103719795D01*
X123701218Y-103737973D01*
X123715833Y-103757679D01*
X123728445Y-103778722D01*
X123738935Y-103800901D01*
X123747200Y-103824000D01*
X123753161Y-103847799D01*
X123756761Y-103872067D01*
X123757965Y-103896571D01*
X123757965Y-104546573D01*
X123756761Y-104571077D01*
X123753161Y-104595345D01*
X123747200Y-104619144D01*
X123738935Y-104642243D01*
X123728445Y-104664422D01*
X123715833Y-104685465D01*
X123701218Y-104705171D01*
X123684742Y-104723349D01*
X123666564Y-104739825D01*
X123646858Y-104754440D01*
X123625815Y-104767052D01*
X123603636Y-104777542D01*
X123580537Y-104785807D01*
X123556738Y-104791768D01*
X123532470Y-104795368D01*
X123507966Y-104796572D01*
X122607964Y-104796572D01*
X122583460Y-104795368D01*
X122559192Y-104791768D01*
X122535393Y-104785807D01*
X122512294Y-104777542D01*
X122490115Y-104767052D01*
X122469072Y-104754440D01*
X122449366Y-104739825D01*
X122431188Y-104723349D01*
X122414712Y-104705171D01*
X122400097Y-104685465D01*
X122387485Y-104664422D01*
X122376995Y-104642243D01*
X122368730Y-104619144D01*
X122362769Y-104595345D01*
X122359169Y-104571077D01*
X122357965Y-104546573D01*
X122357965Y-103896571D01*
X122359169Y-103872067D01*
X122362769Y-103847799D01*
X122368730Y-103824000D01*
X122376995Y-103800901D01*
X122387485Y-103778722D01*
X122400097Y-103757679D01*
X122414712Y-103737973D01*
X122431188Y-103719795D01*
X122449366Y-103703319D01*
X122469072Y-103688704D01*
X122490115Y-103676092D01*
X122512294Y-103665602D01*
X122535393Y-103657337D01*
X122559192Y-103651376D01*
X122583460Y-103647776D01*
X122607964Y-103646572D01*
X123507966Y-103646572D01*
X123532470Y-103647776D01*
X123532470Y-103647776D01*
G37*
D12*
X123057965Y-104221572D03*
D10*
G36*
X123532470Y-101597776D02*
X123556738Y-101601376D01*
X123580537Y-101607337D01*
X123603636Y-101615602D01*
X123625815Y-101626092D01*
X123646858Y-101638704D01*
X123666564Y-101653319D01*
X123684742Y-101669795D01*
X123701218Y-101687973D01*
X123715833Y-101707679D01*
X123728445Y-101728722D01*
X123738935Y-101750901D01*
X123747200Y-101774000D01*
X123753161Y-101797799D01*
X123756761Y-101822067D01*
X123757965Y-101846571D01*
X123757965Y-102496573D01*
X123756761Y-102521077D01*
X123753161Y-102545345D01*
X123747200Y-102569144D01*
X123738935Y-102592243D01*
X123728445Y-102614422D01*
X123715833Y-102635465D01*
X123701218Y-102655171D01*
X123684742Y-102673349D01*
X123666564Y-102689825D01*
X123646858Y-102704440D01*
X123625815Y-102717052D01*
X123603636Y-102727542D01*
X123580537Y-102735807D01*
X123556738Y-102741768D01*
X123532470Y-102745368D01*
X123507966Y-102746572D01*
X122607964Y-102746572D01*
X122583460Y-102745368D01*
X122559192Y-102741768D01*
X122535393Y-102735807D01*
X122512294Y-102727542D01*
X122490115Y-102717052D01*
X122469072Y-102704440D01*
X122449366Y-102689825D01*
X122431188Y-102673349D01*
X122414712Y-102655171D01*
X122400097Y-102635465D01*
X122387485Y-102614422D01*
X122376995Y-102592243D01*
X122368730Y-102569144D01*
X122362769Y-102545345D01*
X122359169Y-102521077D01*
X122357965Y-102496573D01*
X122357965Y-101846571D01*
X122359169Y-101822067D01*
X122362769Y-101797799D01*
X122368730Y-101774000D01*
X122376995Y-101750901D01*
X122387485Y-101728722D01*
X122400097Y-101707679D01*
X122414712Y-101687973D01*
X122431188Y-101669795D01*
X122449366Y-101653319D01*
X122469072Y-101638704D01*
X122490115Y-101626092D01*
X122512294Y-101615602D01*
X122535393Y-101607337D01*
X122559192Y-101601376D01*
X122583460Y-101597776D01*
X122607964Y-101596572D01*
X123507966Y-101596572D01*
X123532470Y-101597776D01*
X123532470Y-101597776D01*
G37*
D12*
X123057965Y-102171572D03*
G04 #@! TD*
D10*
G04 #@! TO.C,R7*
G36*
X120992470Y-101597776D02*
X121016738Y-101601376D01*
X121040537Y-101607337D01*
X121063636Y-101615602D01*
X121085815Y-101626092D01*
X121106858Y-101638704D01*
X121126564Y-101653319D01*
X121144742Y-101669795D01*
X121161218Y-101687973D01*
X121175833Y-101707679D01*
X121188445Y-101728722D01*
X121198935Y-101750901D01*
X121207200Y-101774000D01*
X121213161Y-101797799D01*
X121216761Y-101822067D01*
X121217965Y-101846571D01*
X121217965Y-102496573D01*
X121216761Y-102521077D01*
X121213161Y-102545345D01*
X121207200Y-102569144D01*
X121198935Y-102592243D01*
X121188445Y-102614422D01*
X121175833Y-102635465D01*
X121161218Y-102655171D01*
X121144742Y-102673349D01*
X121126564Y-102689825D01*
X121106858Y-102704440D01*
X121085815Y-102717052D01*
X121063636Y-102727542D01*
X121040537Y-102735807D01*
X121016738Y-102741768D01*
X120992470Y-102745368D01*
X120967966Y-102746572D01*
X120067964Y-102746572D01*
X120043460Y-102745368D01*
X120019192Y-102741768D01*
X119995393Y-102735807D01*
X119972294Y-102727542D01*
X119950115Y-102717052D01*
X119929072Y-102704440D01*
X119909366Y-102689825D01*
X119891188Y-102673349D01*
X119874712Y-102655171D01*
X119860097Y-102635465D01*
X119847485Y-102614422D01*
X119836995Y-102592243D01*
X119828730Y-102569144D01*
X119822769Y-102545345D01*
X119819169Y-102521077D01*
X119817965Y-102496573D01*
X119817965Y-101846571D01*
X119819169Y-101822067D01*
X119822769Y-101797799D01*
X119828730Y-101774000D01*
X119836995Y-101750901D01*
X119847485Y-101728722D01*
X119860097Y-101707679D01*
X119874712Y-101687973D01*
X119891188Y-101669795D01*
X119909366Y-101653319D01*
X119929072Y-101638704D01*
X119950115Y-101626092D01*
X119972294Y-101615602D01*
X119995393Y-101607337D01*
X120019192Y-101601376D01*
X120043460Y-101597776D01*
X120067964Y-101596572D01*
X120967966Y-101596572D01*
X120992470Y-101597776D01*
X120992470Y-101597776D01*
G37*
D12*
X120517965Y-102171572D03*
D10*
G36*
X120992470Y-103647776D02*
X121016738Y-103651376D01*
X121040537Y-103657337D01*
X121063636Y-103665602D01*
X121085815Y-103676092D01*
X121106858Y-103688704D01*
X121126564Y-103703319D01*
X121144742Y-103719795D01*
X121161218Y-103737973D01*
X121175833Y-103757679D01*
X121188445Y-103778722D01*
X121198935Y-103800901D01*
X121207200Y-103824000D01*
X121213161Y-103847799D01*
X121216761Y-103872067D01*
X121217965Y-103896571D01*
X121217965Y-104546573D01*
X121216761Y-104571077D01*
X121213161Y-104595345D01*
X121207200Y-104619144D01*
X121198935Y-104642243D01*
X121188445Y-104664422D01*
X121175833Y-104685465D01*
X121161218Y-104705171D01*
X121144742Y-104723349D01*
X121126564Y-104739825D01*
X121106858Y-104754440D01*
X121085815Y-104767052D01*
X121063636Y-104777542D01*
X121040537Y-104785807D01*
X121016738Y-104791768D01*
X120992470Y-104795368D01*
X120967966Y-104796572D01*
X120067964Y-104796572D01*
X120043460Y-104795368D01*
X120019192Y-104791768D01*
X119995393Y-104785807D01*
X119972294Y-104777542D01*
X119950115Y-104767052D01*
X119929072Y-104754440D01*
X119909366Y-104739825D01*
X119891188Y-104723349D01*
X119874712Y-104705171D01*
X119860097Y-104685465D01*
X119847485Y-104664422D01*
X119836995Y-104642243D01*
X119828730Y-104619144D01*
X119822769Y-104595345D01*
X119819169Y-104571077D01*
X119817965Y-104546573D01*
X119817965Y-103896571D01*
X119819169Y-103872067D01*
X119822769Y-103847799D01*
X119828730Y-103824000D01*
X119836995Y-103800901D01*
X119847485Y-103778722D01*
X119860097Y-103757679D01*
X119874712Y-103737973D01*
X119891188Y-103719795D01*
X119909366Y-103703319D01*
X119929072Y-103688704D01*
X119950115Y-103676092D01*
X119972294Y-103665602D01*
X119995393Y-103657337D01*
X120019192Y-103651376D01*
X120043460Y-103647776D01*
X120067964Y-103646572D01*
X120967966Y-103646572D01*
X120992470Y-103647776D01*
X120992470Y-103647776D01*
G37*
D12*
X120517965Y-104221572D03*
G04 #@! TD*
M02*
