G04 #@! TF.GenerationSoftware,KiCad,Pcbnew,(5.0.2-5)-5*
G04 #@! TF.CreationDate,2019-03-18T15:48:26+01:00*
G04 #@! TF.ProjectId,coffee-notification-button,636f6666-6565-42d6-9e6f-746966696361,00001*
G04 #@! TF.SameCoordinates,Original*
G04 #@! TF.FileFunction,Soldermask,Bot*
G04 #@! TF.FilePolarity,Negative*
%FSLAX46Y46*%
G04 Gerber Fmt 4.6, Leading zero omitted, Abs format (unit mm)*
G04 Created by KiCad (PCBNEW (5.0.2-5)-5) date 2019 March 18, Monday 15:48:26*
%MOMM*%
%LPD*%
G01*
G04 APERTURE LIST*
%ADD10C,0.100000*%
G04 APERTURE END LIST*
D10*
G36*
X106536443Y-100705519D02*
X106602627Y-100712037D01*
X106715853Y-100746384D01*
X106772467Y-100763557D01*
X106911087Y-100837652D01*
X106928991Y-100847222D01*
X106964729Y-100876552D01*
X107066186Y-100959814D01*
X107149448Y-101061271D01*
X107178778Y-101097009D01*
X107178779Y-101097011D01*
X107262443Y-101253533D01*
X107262443Y-101253534D01*
X107313963Y-101423373D01*
X107331359Y-101600000D01*
X107313963Y-101776627D01*
X107279616Y-101889853D01*
X107262443Y-101946467D01*
X107188348Y-102085087D01*
X107178778Y-102102991D01*
X107149448Y-102138729D01*
X107066186Y-102240186D01*
X106964729Y-102323448D01*
X106928991Y-102352778D01*
X106928989Y-102352779D01*
X106772467Y-102436443D01*
X106715853Y-102453616D01*
X106602627Y-102487963D01*
X106536442Y-102494482D01*
X106470260Y-102501000D01*
X106381740Y-102501000D01*
X106315558Y-102494482D01*
X106249373Y-102487963D01*
X106136147Y-102453616D01*
X106079533Y-102436443D01*
X105923011Y-102352779D01*
X105923009Y-102352778D01*
X105887271Y-102323448D01*
X105785814Y-102240186D01*
X105702552Y-102138729D01*
X105673222Y-102102991D01*
X105663652Y-102085087D01*
X105589557Y-101946467D01*
X105572384Y-101889853D01*
X105538037Y-101776627D01*
X105520641Y-101600000D01*
X105538037Y-101423373D01*
X105589557Y-101253534D01*
X105589557Y-101253533D01*
X105673221Y-101097011D01*
X105673222Y-101097009D01*
X105702552Y-101061271D01*
X105785814Y-100959814D01*
X105887271Y-100876552D01*
X105923009Y-100847222D01*
X105940913Y-100837652D01*
X106079533Y-100763557D01*
X106136147Y-100746384D01*
X106249373Y-100712037D01*
X106315557Y-100705519D01*
X106381740Y-100699000D01*
X106470260Y-100699000D01*
X106536443Y-100705519D01*
X106536443Y-100705519D01*
G37*
G36*
X120628408Y-98365091D02*
X120694592Y-98371609D01*
X120807818Y-98405956D01*
X120864432Y-98423129D01*
X120981386Y-98485643D01*
X121020956Y-98506794D01*
X121056694Y-98536124D01*
X121158151Y-98619386D01*
X121241413Y-98720843D01*
X121270743Y-98756581D01*
X121270744Y-98756583D01*
X121354408Y-98913105D01*
X121354408Y-98913106D01*
X121405928Y-99082945D01*
X121423324Y-99259572D01*
X121405928Y-99436199D01*
X121390584Y-99486782D01*
X121354408Y-99606039D01*
X121339273Y-99634354D01*
X121270743Y-99762563D01*
X121241413Y-99798301D01*
X121158151Y-99899758D01*
X121085445Y-99959425D01*
X121020956Y-100012350D01*
X121020954Y-100012351D01*
X120864432Y-100096015D01*
X120807818Y-100113188D01*
X120694592Y-100147535D01*
X120628407Y-100154054D01*
X120562225Y-100160572D01*
X120473705Y-100160572D01*
X120407522Y-100154053D01*
X120341338Y-100147535D01*
X120228112Y-100113188D01*
X120171498Y-100096015D01*
X120014976Y-100012351D01*
X120014974Y-100012350D01*
X119950485Y-99959425D01*
X119877779Y-99899758D01*
X119794517Y-99798301D01*
X119765187Y-99762563D01*
X119696657Y-99634354D01*
X119681522Y-99606039D01*
X119645346Y-99486782D01*
X119630002Y-99436199D01*
X119612606Y-99259572D01*
X119630002Y-99082945D01*
X119681522Y-98913106D01*
X119681522Y-98913105D01*
X119765186Y-98756583D01*
X119765187Y-98756581D01*
X119794517Y-98720843D01*
X119877779Y-98619386D01*
X119979236Y-98536124D01*
X120014974Y-98506794D01*
X120054544Y-98485643D01*
X120171498Y-98423129D01*
X120228112Y-98405956D01*
X120341338Y-98371609D01*
X120407522Y-98365091D01*
X120473705Y-98358572D01*
X120562225Y-98358572D01*
X120628408Y-98365091D01*
X120628408Y-98365091D01*
G37*
G36*
X118088408Y-98365091D02*
X118154592Y-98371609D01*
X118267818Y-98405956D01*
X118324432Y-98423129D01*
X118441386Y-98485643D01*
X118480956Y-98506794D01*
X118516694Y-98536124D01*
X118618151Y-98619386D01*
X118701413Y-98720843D01*
X118730743Y-98756581D01*
X118730744Y-98756583D01*
X118814408Y-98913105D01*
X118814408Y-98913106D01*
X118865928Y-99082945D01*
X118883324Y-99259572D01*
X118865928Y-99436199D01*
X118850584Y-99486782D01*
X118814408Y-99606039D01*
X118799273Y-99634354D01*
X118730743Y-99762563D01*
X118701413Y-99798301D01*
X118618151Y-99899758D01*
X118545445Y-99959425D01*
X118480956Y-100012350D01*
X118480954Y-100012351D01*
X118324432Y-100096015D01*
X118267818Y-100113188D01*
X118154592Y-100147535D01*
X118088407Y-100154054D01*
X118022225Y-100160572D01*
X117933705Y-100160572D01*
X117867522Y-100154053D01*
X117801338Y-100147535D01*
X117688112Y-100113188D01*
X117631498Y-100096015D01*
X117474976Y-100012351D01*
X117474974Y-100012350D01*
X117410485Y-99959425D01*
X117337779Y-99899758D01*
X117254517Y-99798301D01*
X117225187Y-99762563D01*
X117156657Y-99634354D01*
X117141522Y-99606039D01*
X117105346Y-99486782D01*
X117090002Y-99436199D01*
X117072606Y-99259572D01*
X117090002Y-99082945D01*
X117141522Y-98913106D01*
X117141522Y-98913105D01*
X117225186Y-98756583D01*
X117225187Y-98756581D01*
X117254517Y-98720843D01*
X117337779Y-98619386D01*
X117439236Y-98536124D01*
X117474974Y-98506794D01*
X117514544Y-98485643D01*
X117631498Y-98423129D01*
X117688112Y-98405956D01*
X117801338Y-98371609D01*
X117867522Y-98365091D01*
X117933705Y-98358572D01*
X118022225Y-98358572D01*
X118088408Y-98365091D01*
X118088408Y-98365091D01*
G37*
G36*
X123320777Y-98393196D02*
X123484749Y-98461116D01*
X123632319Y-98559719D01*
X123757818Y-98685218D01*
X123856421Y-98832788D01*
X123924341Y-98996760D01*
X123958965Y-99170831D01*
X123958965Y-99348313D01*
X123924341Y-99522384D01*
X123856421Y-99686356D01*
X123757818Y-99833926D01*
X123632319Y-99959425D01*
X123484749Y-100058028D01*
X123320777Y-100125948D01*
X123146706Y-100160572D01*
X122969224Y-100160572D01*
X122795153Y-100125948D01*
X122631181Y-100058028D01*
X122483611Y-99959425D01*
X122358112Y-99833926D01*
X122259509Y-99686356D01*
X122191589Y-99522384D01*
X122156965Y-99348313D01*
X122156965Y-99170831D01*
X122191589Y-98996760D01*
X122259509Y-98832788D01*
X122358112Y-98685218D01*
X122483611Y-98559719D01*
X122631181Y-98461116D01*
X122795153Y-98393196D01*
X122969224Y-98358572D01*
X123146706Y-98358572D01*
X123320777Y-98393196D01*
X123320777Y-98393196D01*
G37*
G36*
X106688812Y-98193624D02*
X106852784Y-98261544D01*
X107000354Y-98360147D01*
X107125853Y-98485646D01*
X107224456Y-98633216D01*
X107292376Y-98797188D01*
X107327000Y-98971259D01*
X107327000Y-99148741D01*
X107292376Y-99322812D01*
X107224456Y-99486784D01*
X107125853Y-99634354D01*
X107000354Y-99759853D01*
X106852784Y-99858456D01*
X106688812Y-99926376D01*
X106514741Y-99961000D01*
X106337259Y-99961000D01*
X106163188Y-99926376D01*
X105999216Y-99858456D01*
X105851646Y-99759853D01*
X105726147Y-99634354D01*
X105627544Y-99486784D01*
X105559624Y-99322812D01*
X105525000Y-99148741D01*
X105525000Y-98971259D01*
X105559624Y-98797188D01*
X105627544Y-98633216D01*
X105726147Y-98485646D01*
X105851646Y-98360147D01*
X105999216Y-98261544D01*
X106163188Y-98193624D01*
X106337259Y-98159000D01*
X106514741Y-98159000D01*
X106688812Y-98193624D01*
X106688812Y-98193624D01*
G37*
G36*
X113180000Y-97972000D02*
X109578000Y-97972000D01*
X109578000Y-94370000D01*
X113180000Y-94370000D01*
X113180000Y-97972000D01*
X113180000Y-97972000D01*
G37*
G36*
X130862294Y-94221633D02*
X131034694Y-94273931D01*
X131034696Y-94273932D01*
X131193583Y-94358859D01*
X131332849Y-94473151D01*
X131447141Y-94612417D01*
X131508569Y-94727341D01*
X131532069Y-94771306D01*
X131584367Y-94943706D01*
X131602025Y-95123000D01*
X131584367Y-95302294D01*
X131532069Y-95474694D01*
X131532068Y-95474696D01*
X131447141Y-95633583D01*
X131332849Y-95772849D01*
X131193583Y-95887141D01*
X131056280Y-95960531D01*
X131034694Y-95972069D01*
X130862294Y-96024367D01*
X130727931Y-96037600D01*
X130638069Y-96037600D01*
X130503706Y-96024367D01*
X130331306Y-95972069D01*
X130309720Y-95960531D01*
X130172417Y-95887141D01*
X130033151Y-95772849D01*
X129918859Y-95633583D01*
X129833932Y-95474696D01*
X129833931Y-95474694D01*
X129781633Y-95302294D01*
X129763975Y-95123000D01*
X129781633Y-94943706D01*
X129833931Y-94771306D01*
X129857431Y-94727341D01*
X129918859Y-94612417D01*
X130033151Y-94473151D01*
X130172417Y-94358859D01*
X130331304Y-94273932D01*
X130331306Y-94273931D01*
X130503706Y-94221633D01*
X130638069Y-94208400D01*
X130727931Y-94208400D01*
X130862294Y-94221633D01*
X130862294Y-94221633D01*
G37*
G36*
X128739702Y-94216579D02*
X128813653Y-94239011D01*
X128881804Y-94275439D01*
X128941538Y-94324462D01*
X128990561Y-94384196D01*
X129026989Y-94452347D01*
X129049421Y-94526298D01*
X129057600Y-94609340D01*
X129057600Y-95636660D01*
X129049421Y-95719702D01*
X129026989Y-95793653D01*
X128990561Y-95861804D01*
X128941538Y-95921538D01*
X128881804Y-95970561D01*
X128813653Y-96006989D01*
X128739702Y-96029421D01*
X128656660Y-96037600D01*
X127629340Y-96037600D01*
X127546298Y-96029421D01*
X127472347Y-96006989D01*
X127404196Y-95970561D01*
X127344462Y-95921538D01*
X127295439Y-95861804D01*
X127259011Y-95793653D01*
X127236579Y-95719702D01*
X127228400Y-95636660D01*
X127228400Y-94609340D01*
X127236579Y-94526298D01*
X127259011Y-94452347D01*
X127295439Y-94384196D01*
X127344462Y-94324462D01*
X127404196Y-94275439D01*
X127472347Y-94239011D01*
X127546298Y-94216579D01*
X127629340Y-94208400D01*
X128656660Y-94208400D01*
X128739702Y-94216579D01*
X128739702Y-94216579D01*
G37*
G36*
X107387084Y-91379970D02*
X107478522Y-91407707D01*
X107562779Y-91452743D01*
X107636640Y-91513360D01*
X107697257Y-91587221D01*
X107742293Y-91671478D01*
X107770030Y-91762916D01*
X107780000Y-91864141D01*
X107780000Y-94477859D01*
X107770030Y-94579084D01*
X107742293Y-94670522D01*
X107697257Y-94754779D01*
X107636640Y-94828640D01*
X107562779Y-94889257D01*
X107478522Y-94934293D01*
X107387084Y-94962030D01*
X107285859Y-94972000D01*
X106072141Y-94972000D01*
X105970916Y-94962030D01*
X105879478Y-94934293D01*
X105795221Y-94889257D01*
X105721360Y-94828640D01*
X105660743Y-94754779D01*
X105615707Y-94670522D01*
X105587970Y-94579084D01*
X105578000Y-94477859D01*
X105578000Y-91864141D01*
X105587970Y-91762916D01*
X105615707Y-91671478D01*
X105660743Y-91587221D01*
X105721360Y-91513360D01*
X105795221Y-91452743D01*
X105879478Y-91407707D01*
X105970916Y-91379970D01*
X106072141Y-91370000D01*
X107285859Y-91370000D01*
X107387084Y-91379970D01*
X107387084Y-91379970D01*
G37*
G36*
X130862294Y-91681633D02*
X131034694Y-91733931D01*
X131034696Y-91733932D01*
X131193583Y-91818859D01*
X131317434Y-91920500D01*
X131332849Y-91933151D01*
X131447140Y-92072416D01*
X131532069Y-92231306D01*
X131584367Y-92403706D01*
X131602025Y-92583000D01*
X131584367Y-92762294D01*
X131532069Y-92934694D01*
X131532068Y-92934696D01*
X131447141Y-93093583D01*
X131332849Y-93232849D01*
X131193583Y-93347141D01*
X131034696Y-93432068D01*
X131034694Y-93432069D01*
X130862294Y-93484367D01*
X130727931Y-93497600D01*
X130638069Y-93497600D01*
X130503706Y-93484367D01*
X130331306Y-93432069D01*
X130331304Y-93432068D01*
X130172417Y-93347141D01*
X130033151Y-93232849D01*
X129918859Y-93093583D01*
X129833932Y-92934696D01*
X129833931Y-92934694D01*
X129781633Y-92762294D01*
X129763975Y-92583000D01*
X129781633Y-92403706D01*
X129833931Y-92231306D01*
X129918860Y-92072416D01*
X130033151Y-91933151D01*
X130048566Y-91920500D01*
X130172417Y-91818859D01*
X130331304Y-91733932D01*
X130331306Y-91733931D01*
X130503706Y-91681633D01*
X130638069Y-91668400D01*
X130727931Y-91668400D01*
X130862294Y-91681633D01*
X130862294Y-91681633D01*
G37*
G36*
X128322294Y-91681633D02*
X128494694Y-91733931D01*
X128494696Y-91733932D01*
X128653583Y-91818859D01*
X128777434Y-91920500D01*
X128792849Y-91933151D01*
X128907140Y-92072416D01*
X128992069Y-92231306D01*
X129044367Y-92403706D01*
X129062025Y-92583000D01*
X129044367Y-92762294D01*
X128992069Y-92934694D01*
X128992068Y-92934696D01*
X128907141Y-93093583D01*
X128792849Y-93232849D01*
X128653583Y-93347141D01*
X128494696Y-93432068D01*
X128494694Y-93432069D01*
X128322294Y-93484367D01*
X128187931Y-93497600D01*
X128098069Y-93497600D01*
X127963706Y-93484367D01*
X127791306Y-93432069D01*
X127791304Y-93432068D01*
X127632417Y-93347141D01*
X127493151Y-93232849D01*
X127378859Y-93093583D01*
X127293932Y-92934696D01*
X127293931Y-92934694D01*
X127241633Y-92762294D01*
X127223975Y-92583000D01*
X127241633Y-92403706D01*
X127293931Y-92231306D01*
X127378860Y-92072416D01*
X127493151Y-91933151D01*
X127508566Y-91920500D01*
X127632417Y-91818859D01*
X127791304Y-91733932D01*
X127791306Y-91733931D01*
X127963706Y-91681633D01*
X128098069Y-91668400D01*
X128187931Y-91668400D01*
X128322294Y-91681633D01*
X128322294Y-91681633D01*
G37*
G36*
X112605978Y-88634293D02*
X112739627Y-88674835D01*
X112862782Y-88740662D01*
X112970739Y-88829261D01*
X113059338Y-88937218D01*
X113125165Y-89060373D01*
X113165707Y-89194022D01*
X113180000Y-89339140D01*
X113180000Y-91002860D01*
X113165707Y-91147978D01*
X113125165Y-91281627D01*
X113059338Y-91404782D01*
X112970739Y-91512739D01*
X112862782Y-91601338D01*
X112739627Y-91667165D01*
X112605978Y-91707707D01*
X112460860Y-91722000D01*
X110297140Y-91722000D01*
X110152022Y-91707707D01*
X110018373Y-91667165D01*
X109895218Y-91601338D01*
X109787261Y-91512739D01*
X109698662Y-91404782D01*
X109632835Y-91281627D01*
X109592293Y-91147978D01*
X109578000Y-91002860D01*
X109578000Y-89339140D01*
X109592293Y-89194022D01*
X109632835Y-89060373D01*
X109698662Y-88937218D01*
X109787261Y-88829261D01*
X109895218Y-88740662D01*
X110018373Y-88674835D01*
X110152022Y-88634293D01*
X110297140Y-88620000D01*
X112460860Y-88620000D01*
X112605978Y-88634293D01*
X112605978Y-88634293D01*
G37*
G36*
X130862294Y-89141633D02*
X131034694Y-89193931D01*
X131034696Y-89193932D01*
X131193583Y-89278859D01*
X131193585Y-89278860D01*
X131193584Y-89278860D01*
X131332849Y-89393151D01*
X131447140Y-89532416D01*
X131532069Y-89691306D01*
X131584367Y-89863706D01*
X131602025Y-90043000D01*
X131584367Y-90222294D01*
X131532069Y-90394694D01*
X131532068Y-90394696D01*
X131447141Y-90553583D01*
X131332849Y-90692849D01*
X131193583Y-90807141D01*
X131034696Y-90892068D01*
X131034694Y-90892069D01*
X130862294Y-90944367D01*
X130727931Y-90957600D01*
X130638069Y-90957600D01*
X130503706Y-90944367D01*
X130331306Y-90892069D01*
X130331304Y-90892068D01*
X130172417Y-90807141D01*
X130033151Y-90692849D01*
X129918859Y-90553583D01*
X129833932Y-90394696D01*
X129833931Y-90394694D01*
X129781633Y-90222294D01*
X129763975Y-90043000D01*
X129781633Y-89863706D01*
X129833931Y-89691306D01*
X129918860Y-89532416D01*
X130033151Y-89393151D01*
X130172416Y-89278860D01*
X130172415Y-89278860D01*
X130172417Y-89278859D01*
X130331304Y-89193932D01*
X130331306Y-89193931D01*
X130503706Y-89141633D01*
X130638069Y-89128400D01*
X130727931Y-89128400D01*
X130862294Y-89141633D01*
X130862294Y-89141633D01*
G37*
G36*
X128322294Y-89141633D02*
X128494694Y-89193931D01*
X128494696Y-89193932D01*
X128653583Y-89278859D01*
X128653585Y-89278860D01*
X128653584Y-89278860D01*
X128792849Y-89393151D01*
X128907140Y-89532416D01*
X128992069Y-89691306D01*
X129044367Y-89863706D01*
X129062025Y-90043000D01*
X129044367Y-90222294D01*
X128992069Y-90394694D01*
X128992068Y-90394696D01*
X128907141Y-90553583D01*
X128792849Y-90692849D01*
X128653583Y-90807141D01*
X128494696Y-90892068D01*
X128494694Y-90892069D01*
X128322294Y-90944367D01*
X128187931Y-90957600D01*
X128098069Y-90957600D01*
X127963706Y-90944367D01*
X127791306Y-90892069D01*
X127791304Y-90892068D01*
X127632417Y-90807141D01*
X127493151Y-90692849D01*
X127378859Y-90553583D01*
X127293932Y-90394696D01*
X127293931Y-90394694D01*
X127241633Y-90222294D01*
X127223975Y-90043000D01*
X127241633Y-89863706D01*
X127293931Y-89691306D01*
X127378860Y-89532416D01*
X127493151Y-89393151D01*
X127632416Y-89278860D01*
X127632415Y-89278860D01*
X127632417Y-89278859D01*
X127791304Y-89193932D01*
X127791306Y-89193931D01*
X127963706Y-89141633D01*
X128098069Y-89128400D01*
X128187931Y-89128400D01*
X128322294Y-89141633D01*
X128322294Y-89141633D01*
G37*
G36*
X131597600Y-88417600D02*
X129768400Y-88417600D01*
X129768400Y-86588400D01*
X131597600Y-86588400D01*
X131597600Y-88417600D01*
X131597600Y-88417600D01*
G37*
G36*
X128409776Y-86623547D02*
X128409778Y-86623548D01*
X128409779Y-86623548D01*
X128576225Y-86692492D01*
X128576226Y-86692493D01*
X128726026Y-86792586D01*
X128853414Y-86919974D01*
X128853416Y-86919977D01*
X128953508Y-87069775D01*
X129022452Y-87236221D01*
X129057600Y-87412920D01*
X129057600Y-87593080D01*
X129022452Y-87769779D01*
X128953508Y-87936225D01*
X128953507Y-87936226D01*
X128853414Y-88086026D01*
X128726026Y-88213414D01*
X128726023Y-88213416D01*
X128576225Y-88313508D01*
X128409779Y-88382452D01*
X128409778Y-88382452D01*
X128409776Y-88382453D01*
X128233082Y-88417600D01*
X128052918Y-88417600D01*
X127876224Y-88382453D01*
X127876222Y-88382452D01*
X127876221Y-88382452D01*
X127709775Y-88313508D01*
X127559977Y-88213416D01*
X127559974Y-88213414D01*
X127432586Y-88086026D01*
X127332493Y-87936226D01*
X127332492Y-87936225D01*
X127263548Y-87769779D01*
X127228400Y-87593080D01*
X127228400Y-87412920D01*
X127263548Y-87236221D01*
X127332492Y-87069775D01*
X127432584Y-86919977D01*
X127432586Y-86919974D01*
X127559974Y-86792586D01*
X127709774Y-86692493D01*
X127709775Y-86692492D01*
X127876221Y-86623548D01*
X127876222Y-86623548D01*
X127876224Y-86623547D01*
X128052918Y-86588400D01*
X128233082Y-86588400D01*
X128409776Y-86623547D01*
X128409776Y-86623547D01*
G37*
M02*
