G04 #@! TF.GenerationSoftware,KiCad,Pcbnew,(5.0.2-5)-5*
G04 #@! TF.CreationDate,2019-03-18T15:48:25+01:00*
G04 #@! TF.ProjectId,coffee-notification-button,636f6666-6565-42d6-9e6f-746966696361,00001*
G04 #@! TF.SameCoordinates,Original*
G04 #@! TF.FileFunction,Copper,L2,Bot*
G04 #@! TF.FilePolarity,Positive*
%FSLAX46Y46*%
G04 Gerber Fmt 4.6, Leading zero omitted, Abs format (unit mm)*
G04 Created by KiCad (PCBNEW (5.0.2-5)-5) date 2019 March 18, Monday 15:48:25*
%MOMM*%
%LPD*%
G01*
G04 APERTURE LIST*
G04 #@! TA.AperFunction,Conductor*
%ADD10C,0.100000*%
G04 #@! TD*
G04 #@! TA.AperFunction,ComponentPad*
%ADD11C,2.100000*%
G04 #@! TD*
G04 #@! TA.AperFunction,ComponentPad*
%ADD12C,3.000000*%
G04 #@! TD*
G04 #@! TA.AperFunction,ComponentPad*
%ADD13R,3.500000X3.500000*%
G04 #@! TD*
G04 #@! TA.AperFunction,ComponentPad*
%ADD14C,1.727200*%
G04 #@! TD*
G04 #@! TA.AperFunction,ComponentPad*
%ADD15R,1.727200X1.727200*%
G04 #@! TD*
G04 #@! TA.AperFunction,ComponentPad*
%ADD16O,1.727200X1.727200*%
G04 #@! TD*
G04 #@! TA.AperFunction,ComponentPad*
%ADD17O,1.700000X1.700000*%
G04 #@! TD*
G04 #@! TA.AperFunction,ComponentPad*
%ADD18C,1.700000*%
G04 #@! TD*
G04 #@! TA.AperFunction,ViaPad*
%ADD19C,0.800000*%
G04 #@! TD*
G04 #@! TA.AperFunction,Conductor*
%ADD20C,0.250000*%
G04 #@! TD*
G04 #@! TA.AperFunction,Conductor*
%ADD21C,0.254000*%
G04 #@! TD*
%ADD22C,0.254000*%
G04 APERTURE END LIST*
D10*
G04 #@! TO.N,GND*
G04 #@! TO.C,J2*
G36*
X107255459Y-91423528D02*
X107306422Y-91431088D01*
X107356399Y-91443606D01*
X107404909Y-91460963D01*
X107451483Y-91482991D01*
X107495674Y-91509478D01*
X107537056Y-91540170D01*
X107575231Y-91574769D01*
X107609830Y-91612944D01*
X107640522Y-91654326D01*
X107667009Y-91698517D01*
X107689037Y-91745091D01*
X107706394Y-91793601D01*
X107718912Y-91843578D01*
X107726472Y-91894541D01*
X107729000Y-91946000D01*
X107729000Y-94396000D01*
X107726472Y-94447459D01*
X107718912Y-94498422D01*
X107706394Y-94548399D01*
X107689037Y-94596909D01*
X107667009Y-94643483D01*
X107640522Y-94687674D01*
X107609830Y-94729056D01*
X107575231Y-94767231D01*
X107537056Y-94801830D01*
X107495674Y-94832522D01*
X107451483Y-94859009D01*
X107404909Y-94881037D01*
X107356399Y-94898394D01*
X107306422Y-94910912D01*
X107255459Y-94918472D01*
X107204000Y-94921000D01*
X106154000Y-94921000D01*
X106102541Y-94918472D01*
X106051578Y-94910912D01*
X106001601Y-94898394D01*
X105953091Y-94881037D01*
X105906517Y-94859009D01*
X105862326Y-94832522D01*
X105820944Y-94801830D01*
X105782769Y-94767231D01*
X105748170Y-94729056D01*
X105717478Y-94687674D01*
X105690991Y-94643483D01*
X105668963Y-94596909D01*
X105651606Y-94548399D01*
X105639088Y-94498422D01*
X105631528Y-94447459D01*
X105629000Y-94396000D01*
X105629000Y-91946000D01*
X105631528Y-91894541D01*
X105639088Y-91843578D01*
X105651606Y-91793601D01*
X105668963Y-91745091D01*
X105690991Y-91698517D01*
X105717478Y-91654326D01*
X105748170Y-91612944D01*
X105782769Y-91574769D01*
X105820944Y-91540170D01*
X105862326Y-91509478D01*
X105906517Y-91482991D01*
X105953091Y-91460963D01*
X106001601Y-91443606D01*
X106051578Y-91431088D01*
X106102541Y-91423528D01*
X106154000Y-91421000D01*
X107204000Y-91421000D01*
X107255459Y-91423528D01*
X107255459Y-91423528D01*
G37*
D11*
G04 #@! TD*
G04 #@! TO.P,J2,3*
G04 #@! TO.N,GND*
X106679000Y-93171000D03*
D10*
G04 #@! TO.N,GND*
G04 #@! TO.C,J2*
G36*
X112452513Y-88674611D02*
X112525318Y-88685411D01*
X112596714Y-88703295D01*
X112666013Y-88728090D01*
X112732548Y-88759559D01*
X112795678Y-88797398D01*
X112854795Y-88841242D01*
X112909330Y-88890670D01*
X112958758Y-88945205D01*
X113002602Y-89004322D01*
X113040441Y-89067452D01*
X113071910Y-89133987D01*
X113096705Y-89203286D01*
X113114589Y-89274682D01*
X113125389Y-89347487D01*
X113129000Y-89421000D01*
X113129000Y-90921000D01*
X113125389Y-90994513D01*
X113114589Y-91067318D01*
X113096705Y-91138714D01*
X113071910Y-91208013D01*
X113040441Y-91274548D01*
X113002602Y-91337678D01*
X112958758Y-91396795D01*
X112909330Y-91451330D01*
X112854795Y-91500758D01*
X112795678Y-91544602D01*
X112732548Y-91582441D01*
X112666013Y-91613910D01*
X112596714Y-91638705D01*
X112525318Y-91656589D01*
X112452513Y-91667389D01*
X112379000Y-91671000D01*
X110379000Y-91671000D01*
X110305487Y-91667389D01*
X110232682Y-91656589D01*
X110161286Y-91638705D01*
X110091987Y-91613910D01*
X110025452Y-91582441D01*
X109962322Y-91544602D01*
X109903205Y-91500758D01*
X109848670Y-91451330D01*
X109799242Y-91396795D01*
X109755398Y-91337678D01*
X109717559Y-91274548D01*
X109686090Y-91208013D01*
X109661295Y-91138714D01*
X109643411Y-91067318D01*
X109632611Y-90994513D01*
X109629000Y-90921000D01*
X109629000Y-89421000D01*
X109632611Y-89347487D01*
X109643411Y-89274682D01*
X109661295Y-89203286D01*
X109686090Y-89133987D01*
X109717559Y-89067452D01*
X109755398Y-89004322D01*
X109799242Y-88945205D01*
X109848670Y-88890670D01*
X109903205Y-88841242D01*
X109962322Y-88797398D01*
X110025452Y-88759559D01*
X110091987Y-88728090D01*
X110161286Y-88703295D01*
X110232682Y-88685411D01*
X110305487Y-88674611D01*
X110379000Y-88671000D01*
X112379000Y-88671000D01*
X112452513Y-88674611D01*
X112452513Y-88674611D01*
G37*
D12*
G04 #@! TD*
G04 #@! TO.P,J2,2*
G04 #@! TO.N,GND*
X111379000Y-90171000D03*
D13*
G04 #@! TO.P,J2,1*
G04 #@! TO.N,+BATT*
X111379000Y-96171000D03*
G04 #@! TD*
D14*
G04 #@! TO.P,U3,1*
G04 #@! TO.N,Net-(U3-Pad1)*
X128143000Y-87503000D03*
D15*
G04 #@! TO.P,U3,2*
G04 #@! TO.N,GND*
X130683000Y-87503000D03*
D16*
G04 #@! TO.P,U3,3*
G04 #@! TO.N,Net-(R1-Pad2)*
X128143000Y-90043000D03*
G04 #@! TO.P,U3,4*
G04 #@! TO.N,/LED_DATA*
X130683000Y-90043000D03*
G04 #@! TO.P,U3,5*
G04 #@! TO.N,Net-(R2-Pad2)*
X128143000Y-92583000D03*
G04 #@! TO.P,U3,6*
G04 #@! TO.N,/HOLD*
X130683000Y-92583000D03*
D10*
G04 #@! TD*
G04 #@! TO.N,+3V3*
G04 #@! TO.C,U3*
G36*
X128617124Y-94261479D02*
X128659040Y-94267697D01*
X128700145Y-94277993D01*
X128740043Y-94292269D01*
X128778349Y-94310386D01*
X128814695Y-94332171D01*
X128848731Y-94357414D01*
X128880129Y-94385871D01*
X128908586Y-94417269D01*
X128933829Y-94451305D01*
X128955614Y-94487651D01*
X128973731Y-94525957D01*
X128988007Y-94565855D01*
X128998303Y-94606960D01*
X129004521Y-94648876D01*
X129006600Y-94691200D01*
X129006600Y-95554800D01*
X129004521Y-95597124D01*
X128998303Y-95639040D01*
X128988007Y-95680145D01*
X128973731Y-95720043D01*
X128955614Y-95758349D01*
X128933829Y-95794695D01*
X128908586Y-95828731D01*
X128880129Y-95860129D01*
X128848731Y-95888586D01*
X128814695Y-95913829D01*
X128778349Y-95935614D01*
X128740043Y-95953731D01*
X128700145Y-95968007D01*
X128659040Y-95978303D01*
X128617124Y-95984521D01*
X128574800Y-95986600D01*
X127711200Y-95986600D01*
X127668876Y-95984521D01*
X127626960Y-95978303D01*
X127585855Y-95968007D01*
X127545957Y-95953731D01*
X127507651Y-95935614D01*
X127471305Y-95913829D01*
X127437269Y-95888586D01*
X127405871Y-95860129D01*
X127377414Y-95828731D01*
X127352171Y-95794695D01*
X127330386Y-95758349D01*
X127312269Y-95720043D01*
X127297993Y-95680145D01*
X127287697Y-95639040D01*
X127281479Y-95597124D01*
X127279400Y-95554800D01*
X127279400Y-94691200D01*
X127281479Y-94648876D01*
X127287697Y-94606960D01*
X127297993Y-94565855D01*
X127312269Y-94525957D01*
X127330386Y-94487651D01*
X127352171Y-94451305D01*
X127377414Y-94417269D01*
X127405871Y-94385871D01*
X127437269Y-94357414D01*
X127471305Y-94332171D01*
X127507651Y-94310386D01*
X127545957Y-94292269D01*
X127585855Y-94277993D01*
X127626960Y-94267697D01*
X127668876Y-94261479D01*
X127711200Y-94259400D01*
X128574800Y-94259400D01*
X128617124Y-94261479D01*
X128617124Y-94261479D01*
G37*
D14*
G04 #@! TO.P,U3,7*
G04 #@! TO.N,+3V3*
X128143000Y-95123000D03*
D16*
G04 #@! TO.P,U3,8*
G04 #@! TO.N,Net-(U3-Pad8)*
X130683000Y-95123000D03*
G04 #@! TD*
D17*
G04 #@! TO.P,SW1,2*
G04 #@! TO.N,Net-(R3-Pad2)*
X106426000Y-101600000D03*
D18*
G04 #@! TO.P,SW1,1*
G04 #@! TO.N,+BATT*
X106426000Y-99060000D03*
G04 #@! TD*
G04 #@! TO.P,J1,1*
G04 #@! TO.N,+5V*
X123057965Y-99259572D03*
D17*
G04 #@! TO.P,J1,2*
G04 #@! TO.N,Net-(J1-Pad2)*
X120517965Y-99259572D03*
G04 #@! TO.P,J1,3*
G04 #@! TO.N,GND*
X117977965Y-99259572D03*
G04 #@! TD*
D19*
G04 #@! TO.N,GND*
X115824000Y-93980000D03*
X131368800Y-98196400D03*
X130225800Y-105257600D03*
X105283000Y-86487000D03*
X125222000Y-99491800D03*
X115626850Y-88870891D03*
G04 #@! TO.N,/ENABLE*
X115570000Y-90043000D03*
X114300000Y-96139000D03*
X128052500Y-101563500D03*
G04 #@! TO.N,/LED_DATA*
X126288710Y-104927280D03*
X132207000Y-90043000D03*
G04 #@! TD*
D20*
G04 #@! TO.N,/ENABLE*
X114300000Y-91035775D02*
X114300000Y-96139000D01*
X115546775Y-89789000D02*
X114300000Y-91035775D01*
X114300000Y-96704685D02*
X114300000Y-96139000D01*
X114300000Y-97320609D02*
X114300000Y-96704685D01*
X118542891Y-101563500D02*
X114300000Y-97320609D01*
X128052500Y-101563500D02*
X118542891Y-101563500D01*
G04 #@! TO.N,/LED_DATA*
X127031722Y-104927280D02*
X126854395Y-104927280D01*
X132207000Y-95700998D02*
X129540000Y-98367998D01*
X129540000Y-98367998D02*
X129540000Y-102419002D01*
X126854395Y-104927280D02*
X126288710Y-104927280D01*
X129540000Y-102419002D02*
X127031722Y-104927280D01*
X132207000Y-90043000D02*
X132207000Y-95700998D01*
G04 #@! TD*
D21*
G04 #@! TO.N,GND*
X104787700Y-85991700D02*
X133464300Y-85991700D01*
X104787700Y-86233000D02*
X127346281Y-86233000D01*
X128939720Y-86233000D02*
X129327774Y-86233000D01*
X130556000Y-86233000D02*
X130810000Y-86233000D01*
X132038226Y-86233000D02*
X133464300Y-86233000D01*
X104787700Y-86474300D02*
X127052359Y-86474300D01*
X130556000Y-86474300D02*
X130810000Y-86474300D01*
X132161200Y-86474300D02*
X133464300Y-86474300D01*
X104787700Y-86715600D02*
X126866774Y-86715600D01*
X130556000Y-86715600D02*
X130810000Y-86715600D01*
X132181600Y-86715600D02*
X133464300Y-86715600D01*
X104787700Y-86956900D02*
X126747130Y-86956900D01*
X130556000Y-86956900D02*
X130810000Y-86956900D01*
X132181600Y-86956900D02*
X133464300Y-86956900D01*
X104787700Y-87198200D02*
X126675670Y-87198200D01*
X130556000Y-87198200D02*
X130810000Y-87198200D01*
X132181600Y-87198200D02*
X133464300Y-87198200D01*
X104787700Y-87439500D02*
X126644400Y-87439500D01*
X130536000Y-87439500D02*
X133464300Y-87439500D01*
X104787700Y-87680800D02*
X126650407Y-87680800D01*
X132073650Y-87680800D02*
X133464300Y-87680800D01*
X104787700Y-87922100D02*
X126698404Y-87922100D01*
X132181600Y-87922100D02*
X133464300Y-87922100D01*
X104787700Y-88163400D02*
X109245707Y-88163400D01*
X111220650Y-88163400D02*
X111537350Y-88163400D01*
X113512294Y-88163400D02*
X126794473Y-88163400D01*
X132181600Y-88163400D02*
X133464300Y-88163400D01*
X104787700Y-88404700D02*
X109051986Y-88404700D01*
X111252000Y-88404700D02*
X111506000Y-88404700D01*
X113706015Y-88404700D02*
X126943145Y-88404700D01*
X132181600Y-88404700D02*
X133464300Y-88404700D01*
X104787700Y-88646000D02*
X108994000Y-88646000D01*
X111252000Y-88646000D02*
X111506000Y-88646000D01*
X113764000Y-88646000D02*
X127166659Y-88646000D01*
X132118187Y-88646000D02*
X133464300Y-88646000D01*
X104787700Y-88887300D02*
X108994000Y-88887300D01*
X111252000Y-88887300D02*
X111506000Y-88887300D01*
X113764000Y-88887300D02*
X127188969Y-88887300D01*
X131910287Y-88887300D02*
X133464300Y-88887300D01*
X104787700Y-89128600D02*
X108994000Y-89128600D01*
X111252000Y-89128600D02*
X111506000Y-89128600D01*
X113764000Y-89128600D02*
X115075547Y-89128600D01*
X116064454Y-89128600D02*
X126954776Y-89128600D01*
X132701454Y-89128600D02*
X133464300Y-89128600D01*
X104787700Y-89369900D02*
X108994000Y-89369900D01*
X111252000Y-89369900D02*
X111506000Y-89369900D01*
X113764000Y-89369900D02*
X114779389Y-89369900D01*
X116360611Y-89369900D02*
X126803536Y-89369900D01*
X132997611Y-89369900D02*
X133464300Y-89369900D01*
X104787700Y-89611200D02*
X108994000Y-89611200D01*
X111252000Y-89611200D02*
X111506000Y-89611200D01*
X113764000Y-89611200D02*
X114628582Y-89611200D01*
X116511419Y-89611200D02*
X126707953Y-89611200D01*
X133148419Y-89611200D02*
X133464300Y-89611200D01*
X104787700Y-89852500D02*
X108994000Y-89852500D01*
X111252000Y-89852500D02*
X111506000Y-89852500D01*
X113764000Y-89852500D02*
X114408474Y-89852500D01*
X116587385Y-89852500D02*
X126655912Y-89852500D01*
X133224385Y-89852500D02*
X133464300Y-89852500D01*
X104787700Y-90093800D02*
X114167174Y-90093800D01*
X116605000Y-90093800D02*
X126642152Y-90093800D01*
X133242000Y-90093800D02*
X133464300Y-90093800D01*
X104787700Y-90335100D02*
X109115650Y-90335100D01*
X111252000Y-90335100D02*
X111506000Y-90335100D01*
X113642350Y-90335100D02*
X113925874Y-90335100D01*
X116567174Y-90335100D02*
X126665918Y-90335100D01*
X133204174Y-90335100D02*
X133464300Y-90335100D01*
X104787700Y-90576400D02*
X108994000Y-90576400D01*
X111252000Y-90576400D02*
X111506000Y-90576400D01*
X116458377Y-90576400D02*
X126738772Y-90576400D01*
X133095377Y-90576400D02*
X133464300Y-90576400D01*
X104787700Y-90817700D02*
X105426161Y-90817700D01*
X106424950Y-90817700D02*
X106933050Y-90817700D01*
X107931840Y-90817700D02*
X108994000Y-90817700D01*
X111252000Y-90817700D02*
X111506000Y-90817700D01*
X116259011Y-90817700D02*
X126857841Y-90817700D01*
X132967000Y-90817700D02*
X133464300Y-90817700D01*
X104787700Y-91059000D02*
X105107173Y-91059000D01*
X106552000Y-91059000D02*
X106806000Y-91059000D01*
X108250828Y-91059000D02*
X108994000Y-91059000D01*
X111252000Y-91059000D02*
X111506000Y-91059000D01*
X115351576Y-91059000D02*
X115372540Y-91059000D01*
X115767459Y-91059000D02*
X127038156Y-91059000D01*
X132967000Y-91059000D02*
X133464300Y-91059000D01*
X104787700Y-91300300D02*
X105005569Y-91300300D01*
X106552000Y-91300300D02*
X106806000Y-91300300D01*
X108352432Y-91300300D02*
X108994000Y-91300300D01*
X111252000Y-91300300D02*
X111506000Y-91300300D01*
X115110276Y-91300300D02*
X127316180Y-91300300D01*
X132967000Y-91300300D02*
X133464300Y-91300300D01*
X104787700Y-91541600D02*
X104994000Y-91541600D01*
X106552000Y-91541600D02*
X106806000Y-91541600D01*
X108364000Y-91541600D02*
X108994000Y-91541600D01*
X111252000Y-91541600D02*
X111506000Y-91541600D01*
X115060000Y-91541600D02*
X127059002Y-91541600D01*
X132967000Y-91541600D02*
X133464300Y-91541600D01*
X104787700Y-91782900D02*
X104994000Y-91782900D01*
X106552000Y-91782900D02*
X106806000Y-91782900D01*
X108364000Y-91782900D02*
X109003818Y-91782900D01*
X111252000Y-91782900D02*
X111506000Y-91782900D01*
X115060000Y-91782900D02*
X126871419Y-91782900D01*
X132967000Y-91782900D02*
X133464300Y-91782900D01*
X104787700Y-92024200D02*
X104994000Y-92024200D01*
X106552000Y-92024200D02*
X106806000Y-92024200D01*
X108364000Y-92024200D02*
X109101292Y-92024200D01*
X111252000Y-92024200D02*
X111506000Y-92024200D01*
X115060000Y-92024200D02*
X126746478Y-92024200D01*
X132967000Y-92024200D02*
X133464300Y-92024200D01*
X104787700Y-92265500D02*
X104994000Y-92265500D01*
X106552000Y-92265500D02*
X106806000Y-92265500D01*
X108364000Y-92265500D02*
X109404915Y-92265500D01*
X111133750Y-92265500D02*
X111624250Y-92265500D01*
X113353084Y-92265500D02*
X113540000Y-92265500D01*
X115060000Y-92265500D02*
X126673281Y-92265500D01*
X132967000Y-92265500D02*
X133464300Y-92265500D01*
X104787700Y-92506800D02*
X104994000Y-92506800D01*
X106552000Y-92506800D02*
X106806000Y-92506800D01*
X108364000Y-92506800D02*
X113540000Y-92506800D01*
X115060000Y-92506800D02*
X126644655Y-92506800D01*
X132967000Y-92506800D02*
X133464300Y-92506800D01*
X104787700Y-92748100D02*
X104994000Y-92748100D01*
X106552000Y-92748100D02*
X106806000Y-92748100D01*
X108364000Y-92748100D02*
X113540000Y-92748100D01*
X115060000Y-92748100D02*
X126653410Y-92748100D01*
X132967000Y-92748100D02*
X133464300Y-92748100D01*
X104787700Y-92989400D02*
X105098150Y-92989400D01*
X106552000Y-92989400D02*
X106806000Y-92989400D01*
X108259850Y-92989400D02*
X113540000Y-92989400D01*
X115060000Y-92989400D02*
X126700247Y-92989400D01*
X132967000Y-92989400D02*
X133464300Y-92989400D01*
X104787700Y-93230700D02*
X113540000Y-93230700D01*
X115060000Y-93230700D02*
X126789958Y-93230700D01*
X132967000Y-93230700D02*
X133464300Y-93230700D01*
X104787700Y-93472000D02*
X104994000Y-93472000D01*
X106552000Y-93472000D02*
X106806000Y-93472000D01*
X108364000Y-93472000D02*
X113540000Y-93472000D01*
X115060000Y-93472000D02*
X126933929Y-93472000D01*
X132967000Y-93472000D02*
X133464300Y-93472000D01*
X104787700Y-93713300D02*
X104994000Y-93713300D01*
X106552000Y-93713300D02*
X106806000Y-93713300D01*
X108364000Y-93713300D02*
X113540000Y-93713300D01*
X115060000Y-93713300D02*
X127158018Y-93713300D01*
X132967000Y-93713300D02*
X133464300Y-93713300D01*
X104787700Y-93954600D02*
X104994000Y-93954600D01*
X106552000Y-93954600D02*
X106806000Y-93954600D01*
X108364000Y-93954600D02*
X109196355Y-93954600D01*
X115060000Y-93954600D02*
X126938344Y-93954600D01*
X132967000Y-93954600D02*
X133464300Y-93954600D01*
X104787700Y-94195900D02*
X104994000Y-94195900D01*
X106552000Y-94195900D02*
X106806000Y-94195900D01*
X108364000Y-94195900D02*
X109033711Y-94195900D01*
X115060000Y-94195900D02*
X126768670Y-94195900D01*
X132967000Y-94195900D02*
X133464300Y-94195900D01*
X104787700Y-94437200D02*
X104994000Y-94437200D01*
X106552000Y-94437200D02*
X106806000Y-94437200D01*
X108364000Y-94437200D02*
X108990928Y-94437200D01*
X115060000Y-94437200D02*
X126675621Y-94437200D01*
X132967000Y-94437200D02*
X133464300Y-94437200D01*
X104787700Y-94678500D02*
X104994000Y-94678500D01*
X106552000Y-94678500D02*
X106806000Y-94678500D01*
X108364000Y-94678500D02*
X108990928Y-94678500D01*
X115060000Y-94678500D02*
X126642579Y-94678500D01*
X132967000Y-94678500D02*
X133464300Y-94678500D01*
X104787700Y-94919800D02*
X104994000Y-94919800D01*
X106552000Y-94919800D02*
X106806000Y-94919800D01*
X108364000Y-94919800D02*
X108990928Y-94919800D01*
X115060000Y-94919800D02*
X126641328Y-94919800D01*
X132967000Y-94919800D02*
X133464300Y-94919800D01*
X104787700Y-95161100D02*
X105041133Y-95161100D01*
X106552000Y-95161100D02*
X106806000Y-95161100D01*
X108316866Y-95161100D02*
X108990928Y-95161100D01*
X115060000Y-95161100D02*
X126641328Y-95161100D01*
X132967000Y-95161100D02*
X133464300Y-95161100D01*
X104787700Y-95402400D02*
X105212374Y-95402400D01*
X106546850Y-95402400D02*
X106811150Y-95402400D01*
X108145626Y-95402400D02*
X108990928Y-95402400D01*
X115060000Y-95402400D02*
X126641328Y-95402400D01*
X132967000Y-95402400D02*
X133464300Y-95402400D01*
X104787700Y-95643700D02*
X108990928Y-95643700D01*
X115213835Y-95643700D02*
X126650083Y-95643700D01*
X132967000Y-95643700D02*
X133464300Y-95643700D01*
X104787700Y-95885000D02*
X108990928Y-95885000D01*
X115304754Y-95885000D02*
X126698735Y-95885000D01*
X132945381Y-95885000D02*
X133464300Y-95885000D01*
X104787700Y-96126300D02*
X108990928Y-96126300D01*
X115335000Y-96126300D02*
X126809399Y-96126300D01*
X129476600Y-96126300D02*
X129567733Y-96126300D01*
X132841131Y-96126300D02*
X133464300Y-96126300D01*
X104787700Y-96367600D02*
X108990928Y-96367600D01*
X115309805Y-96367600D02*
X127023270Y-96367600D01*
X129262729Y-96367600D02*
X129837293Y-96367600D01*
X132615199Y-96367600D02*
X133464300Y-96367600D01*
X104787700Y-96608900D02*
X108990928Y-96608900D01*
X115225636Y-96608900D02*
X127551061Y-96608900D01*
X128734938Y-96608900D02*
X130224297Y-96608900D01*
X132373899Y-96608900D02*
X133464300Y-96608900D01*
X104787700Y-96850200D02*
X108990928Y-96850200D01*
X115060000Y-96850200D02*
X129982997Y-96850200D01*
X132132599Y-96850200D02*
X133464300Y-96850200D01*
X104787700Y-97091500D02*
X108990928Y-97091500D01*
X115145693Y-97091500D02*
X129741697Y-97091500D01*
X131891299Y-97091500D02*
X133464300Y-97091500D01*
X104787700Y-97332800D02*
X108990928Y-97332800D01*
X115386993Y-97332800D02*
X129500397Y-97332800D01*
X131649999Y-97332800D02*
X133464300Y-97332800D01*
X104787700Y-97574100D02*
X108990928Y-97574100D01*
X115628293Y-97574100D02*
X129259097Y-97574100D01*
X131408699Y-97574100D02*
X133464300Y-97574100D01*
X104787700Y-97815400D02*
X105615747Y-97815400D01*
X107236254Y-97815400D02*
X108990928Y-97815400D01*
X115869593Y-97815400D02*
X120163096Y-97815400D01*
X120872835Y-97815400D02*
X122706451Y-97815400D01*
X123409480Y-97815400D02*
X129015349Y-97815400D01*
X131167399Y-97815400D02*
X133464300Y-97815400D01*
X104787700Y-98056700D02*
X105329193Y-98056700D01*
X107522807Y-98056700D02*
X109006590Y-98056700D01*
X113751409Y-98056700D02*
X113961289Y-98056700D01*
X116110893Y-98056700D02*
X117118848Y-98056700D01*
X117850965Y-98056700D02*
X118104965Y-98056700D01*
X118837083Y-98056700D02*
X119642851Y-98056700D01*
X121393080Y-98056700D02*
X122185261Y-98056700D01*
X123930670Y-98056700D02*
X128844638Y-98056700D01*
X130926099Y-98056700D02*
X133464300Y-98056700D01*
X104787700Y-98298000D02*
X105149158Y-98298000D01*
X107702843Y-98298000D02*
X109116933Y-98298000D01*
X113641066Y-98298000D02*
X114202589Y-98298000D01*
X116352193Y-98298000D02*
X116855094Y-98298000D01*
X117850965Y-98298000D02*
X118104965Y-98298000D01*
X119100837Y-98298000D02*
X119386047Y-98298000D01*
X121649884Y-98298000D02*
X121919430Y-98298000D01*
X124196500Y-98298000D02*
X128783218Y-98298000D01*
X130684799Y-98298000D02*
X133464300Y-98298000D01*
X104787700Y-98539300D02*
X105034329Y-98539300D01*
X107817672Y-98539300D02*
X109479754Y-98539300D01*
X113278245Y-98539300D02*
X114443889Y-98539300D01*
X116593493Y-98539300D02*
X116686835Y-98539300D01*
X117850965Y-98539300D02*
X118104965Y-98539300D01*
X124362689Y-98539300D02*
X128780000Y-98539300D01*
X130443499Y-98539300D02*
X133464300Y-98539300D01*
X104787700Y-98780600D02*
X104967484Y-98780600D01*
X107884517Y-98780600D02*
X114685189Y-98780600D01*
X117850965Y-98780600D02*
X118104965Y-98780600D01*
X124466921Y-98780600D02*
X128780000Y-98780600D01*
X130300000Y-98780600D02*
X133464300Y-98780600D01*
X104787700Y-99021900D02*
X104941000Y-99021900D01*
X107911000Y-99021900D02*
X114926489Y-99021900D01*
X117850965Y-99021900D02*
X118104965Y-99021900D01*
X124524782Y-99021900D02*
X128780000Y-99021900D01*
X130300000Y-99021900D02*
X133464300Y-99021900D01*
X104787700Y-99263200D02*
X104952326Y-99263200D01*
X107899673Y-99263200D02*
X115167789Y-99263200D01*
X117830965Y-99263200D02*
X118124965Y-99263200D01*
X124542965Y-99263200D02*
X128780000Y-99263200D01*
X130300000Y-99263200D02*
X133464300Y-99263200D01*
X104787700Y-99504500D02*
X105002765Y-99504500D01*
X107849234Y-99504500D02*
X115409089Y-99504500D01*
X124523338Y-99504500D02*
X128780000Y-99504500D01*
X130300000Y-99504500D02*
X133464300Y-99504500D01*
X104787700Y-99745800D02*
X105102715Y-99745800D01*
X107749284Y-99745800D02*
X115650389Y-99745800D01*
X124463914Y-99745800D02*
X128780000Y-99745800D01*
X130300000Y-99745800D02*
X133464300Y-99745800D01*
X104787700Y-99987100D02*
X105259474Y-99987100D01*
X107592525Y-99987100D02*
X115891689Y-99987100D01*
X124357840Y-99987100D02*
X128780000Y-99987100D01*
X130300000Y-99987100D02*
X133464300Y-99987100D01*
X104787700Y-100228400D02*
X105501704Y-100228400D01*
X107350295Y-100228400D02*
X116132989Y-100228400D01*
X119094296Y-100228400D02*
X119392001Y-100228400D01*
X121643928Y-100228400D02*
X121926686Y-100228400D01*
X124189244Y-100228400D02*
X128780000Y-100228400D01*
X130300000Y-100228400D02*
X133464300Y-100228400D01*
X104787700Y-100469700D02*
X105462456Y-100469700D01*
X107389545Y-100469700D02*
X116374289Y-100469700D01*
X118827354Y-100469700D02*
X119651691Y-100469700D01*
X121384238Y-100469700D02*
X122196120Y-100469700D01*
X123919809Y-100469700D02*
X128780000Y-100469700D01*
X130300000Y-100469700D02*
X133464300Y-100469700D01*
X104787700Y-100711000D02*
X105234524Y-100711000D01*
X107617477Y-100711000D02*
X116615589Y-100711000D01*
X118765193Y-100711000D02*
X120187015Y-100711000D01*
X120848914Y-100711000D02*
X122742928Y-100711000D01*
X123373001Y-100711000D02*
X127465406Y-100711000D01*
X128639595Y-100711000D02*
X128780000Y-100711000D01*
X130300000Y-100711000D02*
X133464300Y-100711000D01*
X104787700Y-100952300D02*
X105088380Y-100952300D01*
X107763621Y-100952300D02*
X116856889Y-100952300D01*
X130300000Y-100952300D02*
X133464300Y-100952300D01*
X104787700Y-101193600D02*
X104997460Y-101193600D01*
X107854541Y-101193600D02*
X117098189Y-101193600D01*
X130300000Y-101193600D02*
X133464300Y-101193600D01*
X104787700Y-101434900D02*
X104950076Y-101434900D01*
X107901925Y-101434900D02*
X117339489Y-101434900D01*
X130300000Y-101434900D02*
X133464300Y-101434900D01*
X104787700Y-101676200D02*
X104941320Y-101676200D01*
X107910679Y-101676200D02*
X117580789Y-101676200D01*
X130300000Y-101676200D02*
X133464300Y-101676200D01*
X104787700Y-101917500D02*
X104970492Y-101917500D01*
X107881507Y-101917500D02*
X117822089Y-101917500D01*
X130300000Y-101917500D02*
X133464300Y-101917500D01*
X104787700Y-102158800D02*
X105043689Y-102158800D01*
X107808310Y-102158800D02*
X118070271Y-102158800D01*
X130300000Y-102158800D02*
X133464300Y-102158800D01*
X104787700Y-102400100D02*
X105169839Y-102400100D01*
X107682160Y-102400100D02*
X127441609Y-102400100D01*
X130301815Y-102400100D02*
X133464300Y-102400100D01*
X104787700Y-102641400D02*
X105359594Y-102641400D01*
X107492405Y-102641400D02*
X128242801Y-102641400D01*
X130266734Y-102641400D02*
X133464300Y-102641400D01*
X104787700Y-102882700D02*
X105675551Y-102882700D01*
X107176448Y-102882700D02*
X128001501Y-102882700D01*
X130142621Y-102882700D02*
X133464300Y-102882700D01*
X104787700Y-103124000D02*
X127760201Y-103124000D01*
X129909803Y-103124000D02*
X133464300Y-103124000D01*
X104787700Y-103365300D02*
X127518901Y-103365300D01*
X129668503Y-103365300D02*
X133464300Y-103365300D01*
X104787700Y-103606600D02*
X127277601Y-103606600D01*
X129427203Y-103606600D02*
X133464300Y-103606600D01*
X104787700Y-103847900D02*
X127036301Y-103847900D01*
X129185903Y-103847900D02*
X133464300Y-103847900D01*
X104787700Y-104089200D02*
X125680035Y-104089200D01*
X128944603Y-104089200D02*
X133464300Y-104089200D01*
X104787700Y-104330500D02*
X125442682Y-104330500D01*
X128703303Y-104330500D02*
X133464300Y-104330500D01*
X104787700Y-104571800D02*
X125315679Y-104571800D01*
X128462003Y-104571800D02*
X133464300Y-104571800D01*
X104787700Y-104813100D02*
X125256145Y-104813100D01*
X128220703Y-104813100D02*
X133464300Y-104813100D01*
X104787700Y-105054400D02*
X125258718Y-105054400D01*
X127979403Y-105054400D02*
X133464300Y-105054400D01*
X104787700Y-105295700D02*
X125321038Y-105295700D01*
X127738103Y-105295700D02*
X133464300Y-105295700D01*
X104787700Y-105537000D02*
X125451328Y-105537000D01*
X127486770Y-105537000D02*
X133464300Y-105537000D01*
X104787700Y-105778300D02*
X125699400Y-105778300D01*
X126878019Y-105778300D02*
X133464300Y-105778300D01*
X104787700Y-106019600D02*
X133464300Y-106019600D01*
X104787700Y-106260900D02*
X133464300Y-106260900D01*
X104787700Y-106502200D02*
X133464300Y-106502200D01*
X104787700Y-106743500D02*
X133464300Y-106743500D01*
X104787700Y-106984800D02*
X133464300Y-106984800D01*
X104787700Y-107226100D02*
X133464300Y-107226100D01*
X104787700Y-107467400D02*
X133464300Y-107467400D01*
X104787700Y-107708700D02*
X133464300Y-107708700D01*
X104787700Y-107950000D02*
X133464300Y-107950000D01*
X104787700Y-108191300D02*
X133464300Y-108191300D01*
X104787700Y-108432600D02*
X133464300Y-108432600D01*
X104787700Y-108673900D02*
X133464300Y-108673900D01*
X104787700Y-108915200D02*
X133464300Y-108915200D01*
X104787700Y-109156500D02*
X133464300Y-109156500D01*
X104787700Y-109397800D02*
X133464300Y-109397800D01*
X133464301Y-109588300D02*
X133464301Y-109588300D01*
X133223001Y-85991700D02*
X133223001Y-89845546D01*
X133223001Y-90240455D02*
X133223001Y-109588300D01*
X132981701Y-85991700D02*
X132981701Y-89353990D01*
X132981701Y-90732010D02*
X132981701Y-109588300D01*
X132740401Y-85991700D02*
X132740401Y-89154624D01*
X132740401Y-96246416D02*
X132740401Y-109588300D01*
X132499101Y-85991700D02*
X132499101Y-89045826D01*
X132499101Y-96483699D02*
X132499101Y-109588300D01*
X132257801Y-85991700D02*
X132257801Y-89008000D01*
X132257801Y-96724999D02*
X132257801Y-109588300D01*
X132016501Y-85991700D02*
X132016501Y-86211275D01*
X132016501Y-87376000D02*
X132016501Y-87630000D01*
X132016501Y-88794725D02*
X132016501Y-89025615D01*
X132016501Y-96966299D02*
X132016501Y-109588300D01*
X131775201Y-85991700D02*
X131775201Y-86046771D01*
X131775201Y-87376000D02*
X131775201Y-87630000D01*
X131775201Y-88959230D02*
X131775201Y-89011596D01*
X131775201Y-97207599D02*
X131775201Y-109588300D01*
X131533901Y-85991700D02*
X131533901Y-86004400D01*
X131533901Y-87376000D02*
X131533901Y-87630000D01*
X131533901Y-97448899D02*
X131533901Y-109588300D01*
X131292601Y-85991700D02*
X131292601Y-86004400D01*
X131292601Y-87376000D02*
X131292601Y-87630000D01*
X131292601Y-97690199D02*
X131292601Y-109588300D01*
X131051301Y-85991700D02*
X131051301Y-86004400D01*
X131051301Y-87376000D02*
X131051301Y-87630000D01*
X131051301Y-97931499D02*
X131051301Y-109588300D01*
X130810001Y-85991700D02*
X130810001Y-86163149D01*
X130810001Y-87376000D02*
X130810001Y-87630000D01*
X130810001Y-98172799D02*
X130810001Y-109588300D01*
X130568701Y-85991700D02*
X130568701Y-86163150D01*
X130568701Y-86163150D02*
X130568701Y-87650000D01*
X130568701Y-98414099D02*
X130568701Y-109588300D01*
X130327401Y-85991700D02*
X130327401Y-86004400D01*
X130327401Y-98655399D02*
X130327401Y-109588300D01*
X130086101Y-85991700D02*
X130086101Y-86004400D01*
X130086101Y-96503195D02*
X130086101Y-96747095D01*
X130086101Y-102951571D02*
X130086101Y-109588300D01*
X129844801Y-85991700D02*
X129844801Y-86004400D01*
X129844801Y-96373761D02*
X129844801Y-96988395D01*
X129844801Y-103189003D02*
X129844801Y-109588300D01*
X129603501Y-85991700D02*
X129603501Y-86041509D01*
X129603501Y-96169882D02*
X129603501Y-97229695D01*
X129603501Y-103430303D02*
X129603501Y-109588300D01*
X129362201Y-85991700D02*
X129362201Y-86198573D01*
X129362201Y-96273678D02*
X129362201Y-97470995D01*
X129362201Y-103671603D02*
X129362201Y-109588300D01*
X129120901Y-85991700D02*
X129120901Y-86361560D01*
X129120901Y-96470177D02*
X129120901Y-97712295D01*
X129120901Y-103912903D02*
X129120901Y-109588300D01*
X128879601Y-85991700D02*
X128879601Y-86192831D01*
X128879601Y-96574970D02*
X128879601Y-97991288D01*
X128879601Y-104154203D02*
X128879601Y-109588300D01*
X128638301Y-85991700D02*
X128638301Y-86086088D01*
X128638301Y-96618418D02*
X128638301Y-100710136D01*
X128638301Y-104395503D02*
X128638301Y-109588300D01*
X128397001Y-85991700D02*
X128397001Y-86025565D01*
X128397001Y-96624672D02*
X128397001Y-100585921D01*
X128397001Y-104636803D02*
X128397001Y-109588300D01*
X128155701Y-85991700D02*
X128155701Y-86004400D01*
X128155701Y-96624672D02*
X128155701Y-100528752D01*
X128155701Y-102598249D02*
X128155701Y-102728500D01*
X128155701Y-104878103D02*
X128155701Y-109588300D01*
X127914401Y-85991700D02*
X127914401Y-86020511D01*
X127914401Y-96624672D02*
X127914401Y-100535692D01*
X127914401Y-102591307D02*
X127914401Y-102969800D01*
X127914401Y-105119403D02*
X127914401Y-109588300D01*
X127673101Y-85991700D02*
X127673101Y-86075565D01*
X127673101Y-96620919D02*
X127673101Y-100600376D01*
X127673101Y-102526623D02*
X127673101Y-103211100D01*
X127673101Y-105360703D02*
X127673101Y-109588300D01*
X127431801Y-85991700D02*
X127431801Y-86175857D01*
X127431801Y-96582675D02*
X127431801Y-100733453D01*
X127431801Y-102393546D02*
X127431801Y-103452400D01*
X127431801Y-105575188D02*
X127431801Y-109588300D01*
X127190501Y-85991700D02*
X127190501Y-86337088D01*
X127190501Y-88668911D02*
X127190501Y-88886042D01*
X127190501Y-91199957D02*
X127190501Y-91426042D01*
X127190501Y-93739958D02*
X127190501Y-93762245D01*
X127190501Y-96483754D02*
X127190501Y-100803500D01*
X127190501Y-102323500D02*
X127190501Y-103693700D01*
X127190501Y-105673313D02*
X127190501Y-109588300D01*
X126949201Y-85991700D02*
X126949201Y-86592237D01*
X126949201Y-88413762D02*
X126949201Y-89135391D01*
X126949201Y-90950608D02*
X126949201Y-91675391D01*
X126949201Y-93490608D02*
X126949201Y-93941369D01*
X126949201Y-96304630D02*
X126949201Y-100803500D01*
X126949201Y-102323500D02*
X126949201Y-103935000D01*
X126949201Y-105730500D02*
X126949201Y-109588300D01*
X126707901Y-85991700D02*
X126707901Y-87051604D01*
X126707901Y-87954395D02*
X126707901Y-89611370D01*
X126707901Y-90474629D02*
X126707901Y-92151370D01*
X126707901Y-93014629D02*
X126707901Y-94330784D01*
X126707901Y-95915215D02*
X126707901Y-100803500D01*
X126707901Y-102323500D02*
X126707901Y-103980639D01*
X126707901Y-105873922D02*
X126707901Y-109588300D01*
X126466601Y-85991700D02*
X126466601Y-100803500D01*
X126466601Y-102323500D02*
X126466601Y-103907388D01*
X126466601Y-105947173D02*
X126466601Y-109588300D01*
X126225301Y-85991700D02*
X126225301Y-100803500D01*
X126225301Y-102323500D02*
X126225301Y-103892280D01*
X126225301Y-105962280D02*
X126225301Y-109588300D01*
X125984001Y-85991700D02*
X125984001Y-100803500D01*
X125984001Y-102323500D02*
X125984001Y-103933218D01*
X125984001Y-105921341D02*
X125984001Y-109588300D01*
X125742701Y-85991700D02*
X125742701Y-100803500D01*
X125742701Y-102323500D02*
X125742701Y-104047327D01*
X125742701Y-105807232D02*
X125742701Y-109588300D01*
X125501401Y-85991700D02*
X125501401Y-100803500D01*
X125501401Y-102323500D02*
X125501401Y-104250878D01*
X125501401Y-105603682D02*
X125501401Y-109588300D01*
X125260101Y-85991700D02*
X125260101Y-100803500D01*
X125260101Y-102323500D02*
X125260101Y-104793211D01*
X125260101Y-105061348D02*
X125260101Y-109588300D01*
X125018801Y-85991700D02*
X125018801Y-100803500D01*
X125018801Y-102323500D02*
X125018801Y-109588300D01*
X124777501Y-85991700D02*
X124777501Y-100803500D01*
X124777501Y-102323500D02*
X124777501Y-109588300D01*
X124536201Y-85991700D02*
X124536201Y-99079308D01*
X124536201Y-99439837D02*
X124536201Y-100803500D01*
X124536201Y-102323500D02*
X124536201Y-109588300D01*
X124294901Y-85991700D02*
X124294901Y-98437849D01*
X124294901Y-100081296D02*
X124294901Y-100803500D01*
X124294901Y-102323500D02*
X124294901Y-109588300D01*
X124053601Y-85991700D02*
X124053601Y-98155101D01*
X124053601Y-100364043D02*
X124053601Y-100803500D01*
X124053601Y-102323500D02*
X124053601Y-109588300D01*
X123812301Y-85991700D02*
X123812301Y-97977609D01*
X123812301Y-100541536D02*
X123812301Y-100803500D01*
X123812301Y-102323500D02*
X123812301Y-109588300D01*
X123571001Y-85991700D02*
X123571001Y-97864727D01*
X123571001Y-100654418D02*
X123571001Y-100803500D01*
X123571001Y-102323500D02*
X123571001Y-109588300D01*
X123329701Y-85991700D02*
X123329701Y-97799531D01*
X123329701Y-100719614D02*
X123329701Y-100803500D01*
X123329701Y-102323500D02*
X123329701Y-109588300D01*
X123088401Y-85991700D02*
X123088401Y-97774572D01*
X123088401Y-100744572D02*
X123088401Y-100803500D01*
X123088401Y-102323500D02*
X123088401Y-109588300D01*
X122847101Y-85991700D02*
X122847101Y-97787422D01*
X122847101Y-100731721D02*
X122847101Y-100803500D01*
X122847101Y-102323500D02*
X122847101Y-109588300D01*
X122605801Y-85991700D02*
X122605801Y-97839512D01*
X122605801Y-100679631D02*
X122605801Y-100803500D01*
X122605801Y-102323500D02*
X122605801Y-109588300D01*
X122364501Y-85991700D02*
X122364501Y-97939461D01*
X122364501Y-100579682D02*
X122364501Y-100803500D01*
X122364501Y-102323500D02*
X122364501Y-109588300D01*
X122123201Y-85991700D02*
X122123201Y-98098167D01*
X122123201Y-100420976D02*
X122123201Y-100803500D01*
X122123201Y-102323500D02*
X122123201Y-109588300D01*
X121881901Y-85991700D02*
X121881901Y-98346746D01*
X121881901Y-100172397D02*
X121881901Y-100803500D01*
X121881901Y-102323500D02*
X121881901Y-109588300D01*
X121640601Y-85991700D02*
X121640601Y-98286690D01*
X121640601Y-100232455D02*
X121640601Y-100803500D01*
X121640601Y-102323500D02*
X121640601Y-109588300D01*
X121399301Y-85991700D02*
X121399301Y-98061806D01*
X121399301Y-100457339D02*
X121399301Y-100803500D01*
X121399301Y-102323500D02*
X121399301Y-109588300D01*
X121158001Y-85991700D02*
X121158001Y-97917856D01*
X121158001Y-100601289D02*
X121158001Y-100803500D01*
X121158001Y-102323500D02*
X121158001Y-109588300D01*
X120916701Y-85991700D02*
X120916701Y-97828707D01*
X120916701Y-100690438D02*
X120916701Y-100803500D01*
X120916701Y-102323500D02*
X120916701Y-109588300D01*
X120675401Y-85991700D02*
X120675401Y-97782894D01*
X120675401Y-100736251D02*
X120675401Y-100803500D01*
X120675401Y-102323500D02*
X120675401Y-109588300D01*
X120434101Y-85991700D02*
X120434101Y-97775646D01*
X120434101Y-100743497D02*
X120434101Y-100803500D01*
X120434101Y-102323500D02*
X120434101Y-109588300D01*
X120192801Y-85991700D02*
X120192801Y-97806388D01*
X120192801Y-100712755D02*
X120192801Y-100803500D01*
X120192801Y-102323500D02*
X120192801Y-109588300D01*
X119951501Y-85991700D02*
X119951501Y-97879586D01*
X119951501Y-100639557D02*
X119951501Y-100803500D01*
X119951501Y-102323500D02*
X119951501Y-109588300D01*
X119710201Y-85991700D02*
X119710201Y-98007507D01*
X119710201Y-100511636D02*
X119710201Y-100803500D01*
X119710201Y-102323500D02*
X119710201Y-109588300D01*
X119468901Y-85991700D02*
X119468901Y-98199456D01*
X119468901Y-100319687D02*
X119468901Y-100803500D01*
X119468901Y-102323500D02*
X119468901Y-109588300D01*
X119227601Y-85991700D02*
X119227601Y-98469640D01*
X119227601Y-100049505D02*
X119227601Y-100803500D01*
X119227601Y-102323500D02*
X119227601Y-109588300D01*
X118986301Y-85991700D02*
X118986301Y-98170934D01*
X118986301Y-100348211D02*
X118986301Y-100803500D01*
X118986301Y-102323500D02*
X118986301Y-109588300D01*
X118745001Y-85991700D02*
X118745001Y-97988018D01*
X118745001Y-100531127D02*
X118745001Y-100690809D01*
X118745001Y-102323500D02*
X118745001Y-109588300D01*
X118503701Y-85991700D02*
X118503701Y-97873053D01*
X118503701Y-102323317D02*
X118503701Y-109588300D01*
X118262401Y-85991700D02*
X118262401Y-97856332D01*
X118262401Y-102272612D02*
X118262401Y-109588300D01*
X118021101Y-85991700D02*
X118021101Y-99406572D01*
X118021101Y-102118446D02*
X118021101Y-109588300D01*
X117779801Y-85991700D02*
X117779801Y-97901862D01*
X117779801Y-101875211D02*
X117779801Y-109588300D01*
X117538501Y-85991700D02*
X117538501Y-97843142D01*
X117538501Y-101633911D02*
X117538501Y-109588300D01*
X117297201Y-85991700D02*
X117297201Y-97946894D01*
X117297201Y-101392611D02*
X117297201Y-109588300D01*
X117055901Y-85991700D02*
X117055901Y-98103651D01*
X117055901Y-101151311D02*
X117055901Y-109588300D01*
X116814601Y-85991700D02*
X116814601Y-98342922D01*
X116814601Y-100910011D02*
X116814601Y-109588300D01*
X116573301Y-85991700D02*
X116573301Y-89781699D01*
X116573301Y-90304302D02*
X116573301Y-98519109D01*
X116573301Y-100668711D02*
X116573301Y-109588300D01*
X116332001Y-85991700D02*
X116332001Y-89341290D01*
X116332001Y-90744710D02*
X116332001Y-98277809D01*
X116332001Y-100427411D02*
X116332001Y-109588300D01*
X116090701Y-85991700D02*
X116090701Y-89146138D01*
X116090701Y-90939863D02*
X116090701Y-98036509D01*
X116090701Y-100186111D02*
X116090701Y-109588300D01*
X115849401Y-85991700D02*
X115849401Y-89043300D01*
X115849401Y-91042701D02*
X115849401Y-97795209D01*
X115849401Y-99944811D02*
X115849401Y-109588300D01*
X115608101Y-85991700D02*
X115608101Y-89008000D01*
X115608101Y-91078000D02*
X115608101Y-97553909D01*
X115608101Y-99703511D02*
X115608101Y-109588300D01*
X115366801Y-85991700D02*
X115366801Y-89028141D01*
X115366801Y-91057858D02*
X115366801Y-97312609D01*
X115366801Y-99462211D02*
X115366801Y-109588300D01*
X115125501Y-85991700D02*
X115125501Y-89106841D01*
X115125501Y-91285076D02*
X115125501Y-95511499D01*
X115125501Y-96766502D02*
X115125501Y-97071309D01*
X115125501Y-99220911D02*
X115125501Y-109588300D01*
X114884201Y-85991700D02*
X114884201Y-89265088D01*
X114884201Y-98979611D02*
X114884201Y-109588300D01*
X114642901Y-85991700D02*
X114642901Y-89576630D01*
X114642901Y-98738311D02*
X114642901Y-109588300D01*
X114401601Y-85991700D02*
X114401601Y-89859373D01*
X114401601Y-98497011D02*
X114401601Y-109588300D01*
X114160301Y-85991700D02*
X114160301Y-90100673D01*
X114160301Y-98255711D02*
X114160301Y-109588300D01*
X113919001Y-85991700D02*
X113919001Y-90341973D01*
X113919001Y-98014411D02*
X113919001Y-109588300D01*
X113677701Y-85991700D02*
X113677701Y-88349220D01*
X113677701Y-89971549D02*
X113677701Y-90370451D01*
X113677701Y-98241513D02*
X113677701Y-109588300D01*
X113436401Y-85991700D02*
X113436401Y-88112691D01*
X113436401Y-90044000D02*
X113436401Y-90298000D01*
X113436401Y-92229310D02*
X113436401Y-93865291D01*
X113436401Y-98476710D02*
X113436401Y-109588300D01*
X113195101Y-85991700D02*
X113195101Y-88036708D01*
X113195101Y-90044000D02*
X113195101Y-90298000D01*
X113195101Y-92305293D02*
X113195101Y-93789439D01*
X113195101Y-98552562D02*
X113195101Y-109588300D01*
X112953801Y-85991700D02*
X112953801Y-88036000D01*
X112953801Y-90044000D02*
X112953801Y-90298000D01*
X112953801Y-92306000D02*
X112953801Y-93782928D01*
X112953801Y-98559072D02*
X112953801Y-109588300D01*
X112712501Y-85991700D02*
X112712501Y-88036000D01*
X112712501Y-90044000D02*
X112712501Y-90298000D01*
X112712501Y-92306000D02*
X112712501Y-93782928D01*
X112712501Y-98559072D02*
X112712501Y-109588300D01*
X112471201Y-85991700D02*
X112471201Y-88036000D01*
X112471201Y-90044000D02*
X112471201Y-90298000D01*
X112471201Y-92306000D02*
X112471201Y-93782928D01*
X112471201Y-98559072D02*
X112471201Y-109588300D01*
X112229901Y-85991700D02*
X112229901Y-88036000D01*
X112229901Y-90044000D02*
X112229901Y-90298000D01*
X112229901Y-92306000D02*
X112229901Y-93782928D01*
X112229901Y-98559072D02*
X112229901Y-109588300D01*
X111988601Y-85991700D02*
X111988601Y-88036000D01*
X111988601Y-90044000D02*
X111988601Y-90298000D01*
X111988601Y-92306000D02*
X111988601Y-93782928D01*
X111988601Y-98559072D02*
X111988601Y-109588300D01*
X111747301Y-85991700D02*
X111747301Y-88036000D01*
X111747301Y-90044000D02*
X111747301Y-90298000D01*
X111747301Y-92306000D02*
X111747301Y-93782928D01*
X111747301Y-98559072D02*
X111747301Y-109588300D01*
X111506001Y-85991700D02*
X111506001Y-88194749D01*
X111506001Y-90044000D02*
X111506001Y-90298000D01*
X111506001Y-92147251D02*
X111506001Y-93782928D01*
X111506001Y-98559072D02*
X111506001Y-109588300D01*
X111264701Y-85991700D02*
X111264701Y-88194750D01*
X111264701Y-88194750D02*
X111264701Y-93782928D01*
X111264701Y-98559072D02*
X111264701Y-109588300D01*
X111023401Y-85991700D02*
X111023401Y-88036000D01*
X111023401Y-90044000D02*
X111023401Y-90298000D01*
X111023401Y-92306000D02*
X111023401Y-93782928D01*
X111023401Y-98559072D02*
X111023401Y-109588300D01*
X110782101Y-85991700D02*
X110782101Y-88036000D01*
X110782101Y-90044000D02*
X110782101Y-90298000D01*
X110782101Y-92306000D02*
X110782101Y-93782928D01*
X110782101Y-98559072D02*
X110782101Y-109588300D01*
X110540801Y-85991700D02*
X110540801Y-88036000D01*
X110540801Y-90044000D02*
X110540801Y-90298000D01*
X110540801Y-92306000D02*
X110540801Y-93782928D01*
X110540801Y-98559072D02*
X110540801Y-109588300D01*
X110299501Y-85991700D02*
X110299501Y-88036000D01*
X110299501Y-90044000D02*
X110299501Y-90298000D01*
X110299501Y-92306000D02*
X110299501Y-93782928D01*
X110299501Y-98559072D02*
X110299501Y-109588300D01*
X110058201Y-85991700D02*
X110058201Y-88036000D01*
X110058201Y-90044000D02*
X110058201Y-90298000D01*
X110058201Y-92306000D02*
X110058201Y-93782928D01*
X110058201Y-98559072D02*
X110058201Y-109588300D01*
X109816901Y-85991700D02*
X109816901Y-88036000D01*
X109816901Y-90044000D02*
X109816901Y-90298000D01*
X109816901Y-92306000D02*
X109816901Y-93782928D01*
X109816901Y-98559072D02*
X109816901Y-109588300D01*
X109575601Y-85991700D02*
X109575601Y-88036000D01*
X109575601Y-90044000D02*
X109575601Y-90298000D01*
X109575601Y-92306000D02*
X109575601Y-93788187D01*
X109575601Y-98553812D02*
X109575601Y-109588300D01*
X109334301Y-85991700D02*
X109334301Y-88105749D01*
X109334301Y-90044000D02*
X109334301Y-90298000D01*
X109334301Y-92236250D02*
X109334301Y-93858501D01*
X109334301Y-98483498D02*
X109334301Y-109588300D01*
X109093001Y-85991700D02*
X109093001Y-88330209D01*
X109093001Y-89984251D02*
X109093001Y-90357749D01*
X109093001Y-92011790D02*
X109093001Y-94076724D01*
X109093001Y-98265275D02*
X109093001Y-109588300D01*
X108851701Y-85991700D02*
X108851701Y-88608458D01*
X108851701Y-88608458D02*
X108851701Y-90456750D01*
X108851701Y-90456750D02*
X108851701Y-94421000D01*
X108851701Y-94421000D02*
X108851701Y-109588300D01*
X108610401Y-85991700D02*
X108610401Y-88608458D01*
X108610401Y-88608458D02*
X108610401Y-90456750D01*
X108610401Y-90456750D02*
X108610401Y-94421000D01*
X108610401Y-94421000D02*
X108610401Y-109588300D01*
X108369101Y-85991700D02*
X108369101Y-88608458D01*
X108369101Y-88608458D02*
X108369101Y-90456750D01*
X108369101Y-90456750D02*
X108369101Y-94421000D01*
X108369101Y-94421000D02*
X108369101Y-109588300D01*
X108127801Y-85991700D02*
X108127801Y-88608458D01*
X108127801Y-88608458D02*
X108127801Y-90456750D01*
X108127801Y-90456750D02*
X108127801Y-90923762D01*
X108127801Y-93044000D02*
X108127801Y-93298000D01*
X108127801Y-95418239D02*
X108127801Y-109588300D01*
X107886501Y-85991700D02*
X107886501Y-88608458D01*
X107886501Y-88608458D02*
X107886501Y-90456750D01*
X107886501Y-90456750D02*
X107886501Y-90804889D01*
X107886501Y-93044000D02*
X107886501Y-93298000D01*
X107886501Y-95537112D02*
X107886501Y-98790577D01*
X107886501Y-99329424D02*
X107886501Y-101298960D01*
X107886501Y-101901041D02*
X107886501Y-109588300D01*
X107645201Y-85991700D02*
X107645201Y-88608458D01*
X107645201Y-88608458D02*
X107645201Y-90456750D01*
X107645201Y-90456750D02*
X107645201Y-90786000D01*
X107645201Y-93044000D02*
X107645201Y-93298000D01*
X107645201Y-95556000D02*
X107645201Y-98211734D01*
X107645201Y-99908267D02*
X107645201Y-100744783D01*
X107645201Y-102455218D02*
X107645201Y-109588300D01*
X107403901Y-85991700D02*
X107403901Y-88608458D01*
X107403901Y-88608458D02*
X107403901Y-90456750D01*
X107403901Y-90456750D02*
X107403901Y-90786000D01*
X107403901Y-93044000D02*
X107403901Y-93298000D01*
X107403901Y-95556000D02*
X107403901Y-97937794D01*
X107403901Y-100182206D02*
X107403901Y-100481483D01*
X107403901Y-102718518D02*
X107403901Y-109588300D01*
X107162601Y-85991700D02*
X107162601Y-88608458D01*
X107162601Y-88608458D02*
X107162601Y-90456750D01*
X107162601Y-90456750D02*
X107162601Y-90786000D01*
X107162601Y-93044000D02*
X107162601Y-93298000D01*
X107162601Y-95556000D02*
X107162601Y-97766187D01*
X107162601Y-102890102D02*
X107162601Y-109588300D01*
X106921301Y-85991700D02*
X106921301Y-88608458D01*
X106921301Y-88608458D02*
X106921301Y-90456750D01*
X106921301Y-90456750D02*
X106921301Y-90829449D01*
X106921301Y-93044000D02*
X106921301Y-93298000D01*
X106921301Y-95512551D02*
X106921301Y-97657809D01*
X106921301Y-103001573D02*
X106921301Y-109588300D01*
X106680001Y-85991700D02*
X106680001Y-88608458D01*
X106680001Y-88608458D02*
X106680001Y-90456750D01*
X106680001Y-90456750D02*
X106680001Y-90944750D01*
X106680001Y-90944750D02*
X106680001Y-93298000D01*
X106680001Y-93298000D02*
X106680001Y-97596432D01*
X106680001Y-103067169D02*
X106680001Y-109588300D01*
X106438701Y-85991700D02*
X106438701Y-88608458D01*
X106438701Y-88608458D02*
X106438701Y-90456750D01*
X106438701Y-90456750D02*
X106438701Y-90831451D01*
X106438701Y-93044000D02*
X106438701Y-93298000D01*
X106438701Y-95510549D02*
X106438701Y-97575000D01*
X106438701Y-103085000D02*
X106438701Y-109588300D01*
X106197401Y-85991700D02*
X106197401Y-88608458D01*
X106197401Y-88608458D02*
X106197401Y-90456750D01*
X106197401Y-90456750D02*
X106197401Y-90786000D01*
X106197401Y-93044000D02*
X106197401Y-93298000D01*
X106197401Y-95556000D02*
X106197401Y-97591378D01*
X106197401Y-103069669D02*
X106197401Y-109588300D01*
X105956101Y-85991700D02*
X105956101Y-88608458D01*
X105956101Y-88608458D02*
X105956101Y-90456750D01*
X105956101Y-90456750D02*
X105956101Y-90786000D01*
X105956101Y-93044000D02*
X105956101Y-93298000D01*
X105956101Y-95556000D02*
X105956101Y-97647286D01*
X105956101Y-103009278D02*
X105956101Y-109588300D01*
X105714801Y-85991700D02*
X105714801Y-88608458D01*
X105714801Y-88608458D02*
X105714801Y-90456750D01*
X105714801Y-90456750D02*
X105714801Y-90786000D01*
X105714801Y-93044000D02*
X105714801Y-93298000D01*
X105714801Y-95556000D02*
X105714801Y-97749213D01*
X105714801Y-102903679D02*
X105714801Y-109588300D01*
X105473501Y-85991700D02*
X105473501Y-88608458D01*
X105473501Y-88608458D02*
X105473501Y-90456750D01*
X105473501Y-90456750D02*
X105473501Y-90804490D01*
X105473501Y-93044000D02*
X105473501Y-93298000D01*
X105473501Y-95537509D02*
X105473501Y-97912392D01*
X105473501Y-100207608D02*
X105473501Y-100460635D01*
X105473501Y-102739364D02*
X105473501Y-109588300D01*
X105232201Y-85991700D02*
X105232201Y-88608458D01*
X105232201Y-88608458D02*
X105232201Y-90456750D01*
X105232201Y-90456750D02*
X105232201Y-90922424D01*
X105232201Y-93044000D02*
X105232201Y-93298000D01*
X105232201Y-95419575D02*
X105232201Y-98173717D01*
X105232201Y-99946282D02*
X105232201Y-100713829D01*
X105232201Y-102486170D02*
X105232201Y-109588300D01*
X104990901Y-85991700D02*
X104990901Y-88608458D01*
X104990901Y-88608458D02*
X104990901Y-90456750D01*
X104990901Y-90456750D02*
X104990901Y-91358458D01*
X104990901Y-91358458D02*
X104990901Y-93456750D01*
X104990901Y-93456750D02*
X104990901Y-98662872D01*
X104990901Y-99457127D02*
X104990901Y-101215220D01*
X104990901Y-101984779D02*
X104990901Y-109588300D01*
D22*
X133464301Y-109588300D02*
X104787700Y-109588300D01*
X104787700Y-101600000D01*
X104933815Y-101600000D01*
X104962487Y-101891111D01*
X105047401Y-102171034D01*
X105185294Y-102429014D01*
X105370866Y-102655134D01*
X105596986Y-102840706D01*
X105854966Y-102978599D01*
X106134889Y-103063513D01*
X106353050Y-103085000D01*
X106498950Y-103085000D01*
X106717111Y-103063513D01*
X106997034Y-102978599D01*
X107255014Y-102840706D01*
X107481134Y-102655134D01*
X107666706Y-102429014D01*
X107804599Y-102171034D01*
X107889513Y-101891111D01*
X107918185Y-101600000D01*
X107889513Y-101308889D01*
X107804599Y-101028966D01*
X107666706Y-100770986D01*
X107481134Y-100544866D01*
X107255014Y-100359294D01*
X107199115Y-100329415D01*
X107372632Y-100213475D01*
X107579475Y-100006632D01*
X107741990Y-99763411D01*
X107853932Y-99493158D01*
X107911000Y-99206260D01*
X107911000Y-98913740D01*
X107853932Y-98626842D01*
X107741990Y-98356589D01*
X107579475Y-98113368D01*
X107372632Y-97906525D01*
X107129411Y-97744010D01*
X106859158Y-97632068D01*
X106572260Y-97575000D01*
X106279740Y-97575000D01*
X105992842Y-97632068D01*
X105722589Y-97744010D01*
X105479368Y-97906525D01*
X105272525Y-98113368D01*
X105110010Y-98356589D01*
X104998068Y-98626842D01*
X104941000Y-98913740D01*
X104941000Y-99206260D01*
X104998068Y-99493158D01*
X105110010Y-99763411D01*
X105272525Y-100006632D01*
X105479368Y-100213475D01*
X105652885Y-100329415D01*
X105596986Y-100359294D01*
X105370866Y-100544866D01*
X105185294Y-100770986D01*
X105047401Y-101028966D01*
X104962487Y-101308889D01*
X104933815Y-101600000D01*
X104787700Y-101600000D01*
X104787700Y-93456750D01*
X104994000Y-93456750D01*
X104994000Y-94983542D01*
X105018403Y-95106223D01*
X105066270Y-95221785D01*
X105135763Y-95325789D01*
X105224211Y-95414237D01*
X105328215Y-95483730D01*
X105443777Y-95531597D01*
X105566458Y-95556000D01*
X106393250Y-95556000D01*
X106552000Y-95397250D01*
X106552000Y-93298000D01*
X106806000Y-93298000D01*
X106806000Y-95397250D01*
X106964750Y-95556000D01*
X107791542Y-95556000D01*
X107914223Y-95531597D01*
X108029785Y-95483730D01*
X108133789Y-95414237D01*
X108222237Y-95325789D01*
X108291730Y-95221785D01*
X108339597Y-95106223D01*
X108364000Y-94983542D01*
X108364000Y-94421000D01*
X108990928Y-94421000D01*
X108990928Y-97921000D01*
X109003188Y-98045482D01*
X109039498Y-98165180D01*
X109098463Y-98275494D01*
X109177815Y-98372185D01*
X109274506Y-98451537D01*
X109384820Y-98510502D01*
X109504518Y-98546812D01*
X109629000Y-98559072D01*
X113129000Y-98559072D01*
X113253482Y-98546812D01*
X113373180Y-98510502D01*
X113483494Y-98451537D01*
X113580185Y-98372185D01*
X113659537Y-98275494D01*
X113718502Y-98165180D01*
X113754812Y-98045482D01*
X113767072Y-97921000D01*
X113767072Y-97866415D01*
X113789003Y-97884413D01*
X117979092Y-102074503D01*
X118002890Y-102103501D01*
X118031888Y-102127299D01*
X118118614Y-102198474D01*
X118250644Y-102269046D01*
X118393905Y-102312503D01*
X118505558Y-102323500D01*
X118505568Y-102323500D01*
X118542891Y-102327176D01*
X118580213Y-102323500D01*
X127348789Y-102323500D01*
X127392726Y-102367437D01*
X127562244Y-102480705D01*
X127750602Y-102558726D01*
X127950561Y-102598500D01*
X128154439Y-102598500D01*
X128318293Y-102565908D01*
X126836010Y-104048191D01*
X126778966Y-104010075D01*
X126590608Y-103932054D01*
X126390649Y-103892280D01*
X126186771Y-103892280D01*
X125986812Y-103932054D01*
X125798454Y-104010075D01*
X125628936Y-104123343D01*
X125484773Y-104267506D01*
X125371505Y-104437024D01*
X125293484Y-104625382D01*
X125253710Y-104825341D01*
X125253710Y-105029219D01*
X125293484Y-105229178D01*
X125371505Y-105417536D01*
X125484773Y-105587054D01*
X125628936Y-105731217D01*
X125798454Y-105844485D01*
X125986812Y-105922506D01*
X126186771Y-105962280D01*
X126390649Y-105962280D01*
X126590608Y-105922506D01*
X126778966Y-105844485D01*
X126948484Y-105731217D01*
X126992421Y-105687280D01*
X126994400Y-105687280D01*
X127031722Y-105690956D01*
X127069044Y-105687280D01*
X127069055Y-105687280D01*
X127180708Y-105676283D01*
X127323969Y-105632826D01*
X127455998Y-105562254D01*
X127571723Y-105467281D01*
X127595526Y-105438277D01*
X130051003Y-102982801D01*
X130080001Y-102959003D01*
X130174974Y-102843278D01*
X130245546Y-102711249D01*
X130289003Y-102567988D01*
X130300000Y-102456335D01*
X130300000Y-102456327D01*
X130303676Y-102419002D01*
X130300000Y-102381677D01*
X130300000Y-98682799D01*
X132718003Y-96264797D01*
X132747001Y-96240999D01*
X132841974Y-96125274D01*
X132912546Y-95993245D01*
X132956003Y-95849984D01*
X132967000Y-95738331D01*
X132970677Y-95700998D01*
X132967000Y-95663665D01*
X132967000Y-90746711D01*
X133010937Y-90702774D01*
X133124205Y-90533256D01*
X133202226Y-90344898D01*
X133242000Y-90144939D01*
X133242000Y-89941061D01*
X133202226Y-89741102D01*
X133124205Y-89552744D01*
X133010937Y-89383226D01*
X132866774Y-89239063D01*
X132697256Y-89125795D01*
X132508898Y-89047774D01*
X132308939Y-89008000D01*
X132105061Y-89008000D01*
X131905102Y-89047774D01*
X131830315Y-89078752D01*
X131747797Y-88978203D01*
X131741624Y-88973137D01*
X131847385Y-88929330D01*
X131951389Y-88859837D01*
X132039837Y-88771389D01*
X132109330Y-88667385D01*
X132157197Y-88551823D01*
X132181600Y-88429142D01*
X132181600Y-87788750D01*
X132022850Y-87630000D01*
X130810000Y-87630000D01*
X130810000Y-87650000D01*
X130556000Y-87650000D01*
X130556000Y-87630000D01*
X130536000Y-87630000D01*
X130536000Y-87376000D01*
X130556000Y-87376000D01*
X130556000Y-86163150D01*
X130810000Y-86163150D01*
X130810000Y-87376000D01*
X132022850Y-87376000D01*
X132181600Y-87217250D01*
X132181600Y-86576858D01*
X132157197Y-86454177D01*
X132109330Y-86338615D01*
X132039837Y-86234611D01*
X131951389Y-86146163D01*
X131847385Y-86076670D01*
X131731823Y-86028803D01*
X131609142Y-86004400D01*
X130968750Y-86004400D01*
X130810000Y-86163150D01*
X130556000Y-86163150D01*
X130397250Y-86004400D01*
X129756858Y-86004400D01*
X129634177Y-86028803D01*
X129518615Y-86076670D01*
X129414611Y-86146163D01*
X129326163Y-86234611D01*
X129256670Y-86338615D01*
X129210184Y-86450843D01*
X129098302Y-86338961D01*
X128852853Y-86174958D01*
X128580125Y-86061990D01*
X128290599Y-86004400D01*
X127995401Y-86004400D01*
X127705875Y-86061990D01*
X127433147Y-86174958D01*
X127187698Y-86338961D01*
X126978961Y-86547698D01*
X126814958Y-86793147D01*
X126701990Y-87065875D01*
X126644400Y-87355401D01*
X126644400Y-87650599D01*
X126701990Y-87940125D01*
X126814958Y-88212853D01*
X126978961Y-88458302D01*
X127187698Y-88667039D01*
X127343463Y-88771117D01*
X127306394Y-88790931D01*
X127078203Y-88978203D01*
X126890931Y-89206394D01*
X126751775Y-89466736D01*
X126666084Y-89749223D01*
X126637149Y-90043000D01*
X126666084Y-90336777D01*
X126751775Y-90619264D01*
X126890931Y-90879606D01*
X127078203Y-91107797D01*
X127306394Y-91295069D01*
X127339940Y-91313000D01*
X127306394Y-91330931D01*
X127078203Y-91518203D01*
X126890931Y-91746394D01*
X126751775Y-92006736D01*
X126666084Y-92289223D01*
X126637149Y-92583000D01*
X126666084Y-92876777D01*
X126751775Y-93159264D01*
X126890931Y-93419606D01*
X127078203Y-93647797D01*
X127206947Y-93753455D01*
X127116811Y-93801634D01*
X126954686Y-93934686D01*
X126821634Y-94096811D01*
X126722767Y-94281778D01*
X126661885Y-94482478D01*
X126641328Y-94691200D01*
X126641328Y-95554800D01*
X126661885Y-95763522D01*
X126722767Y-95964222D01*
X126821634Y-96149189D01*
X126954686Y-96311314D01*
X127116811Y-96444366D01*
X127301778Y-96543233D01*
X127502478Y-96604115D01*
X127711200Y-96624672D01*
X128574800Y-96624672D01*
X128783522Y-96604115D01*
X128984222Y-96543233D01*
X129169189Y-96444366D01*
X129331314Y-96311314D01*
X129464366Y-96149189D01*
X129512545Y-96059053D01*
X129618203Y-96187797D01*
X129846394Y-96375069D01*
X130106736Y-96514225D01*
X130269575Y-96563621D01*
X129029003Y-97804194D01*
X128999999Y-97827997D01*
X128971481Y-97862747D01*
X128905026Y-97943722D01*
X128850634Y-98045482D01*
X128834454Y-98075752D01*
X128790997Y-98219013D01*
X128780000Y-98330666D01*
X128780000Y-98330676D01*
X128776324Y-98367998D01*
X128780000Y-98405321D01*
X128780001Y-100827290D01*
X128712274Y-100759563D01*
X128542756Y-100646295D01*
X128354398Y-100568274D01*
X128154439Y-100528500D01*
X127950561Y-100528500D01*
X127750602Y-100568274D01*
X127562244Y-100646295D01*
X127392726Y-100759563D01*
X127348789Y-100803500D01*
X118857693Y-100803500D01*
X118636859Y-100582667D01*
X118744885Y-100531213D01*
X118978234Y-100357160D01*
X119173143Y-100140927D01*
X119242764Y-100024049D01*
X119277259Y-100088586D01*
X119462831Y-100314706D01*
X119688951Y-100500278D01*
X119946931Y-100638171D01*
X120226854Y-100723085D01*
X120445015Y-100744572D01*
X120590915Y-100744572D01*
X120809076Y-100723085D01*
X121088999Y-100638171D01*
X121346979Y-100500278D01*
X121573099Y-100314706D01*
X121758671Y-100088586D01*
X121788550Y-100032687D01*
X121904490Y-100206204D01*
X122111333Y-100413047D01*
X122354554Y-100575562D01*
X122624807Y-100687504D01*
X122911705Y-100744572D01*
X123204225Y-100744572D01*
X123491123Y-100687504D01*
X123761376Y-100575562D01*
X124004597Y-100413047D01*
X124211440Y-100206204D01*
X124373955Y-99962983D01*
X124485897Y-99692730D01*
X124542965Y-99405832D01*
X124542965Y-99113312D01*
X124485897Y-98826414D01*
X124373955Y-98556161D01*
X124211440Y-98312940D01*
X124004597Y-98106097D01*
X123761376Y-97943582D01*
X123491123Y-97831640D01*
X123204225Y-97774572D01*
X122911705Y-97774572D01*
X122624807Y-97831640D01*
X122354554Y-97943582D01*
X122111333Y-98106097D01*
X121904490Y-98312940D01*
X121788550Y-98486457D01*
X121758671Y-98430558D01*
X121573099Y-98204438D01*
X121346979Y-98018866D01*
X121088999Y-97880973D01*
X120809076Y-97796059D01*
X120590915Y-97774572D01*
X120445015Y-97774572D01*
X120226854Y-97796059D01*
X119946931Y-97880973D01*
X119688951Y-98018866D01*
X119462831Y-98204438D01*
X119277259Y-98430558D01*
X119242764Y-98495095D01*
X119173143Y-98378217D01*
X118978234Y-98161984D01*
X118744885Y-97987931D01*
X118482064Y-97862747D01*
X118334855Y-97818096D01*
X118104965Y-97939417D01*
X118104965Y-99132572D01*
X118124965Y-99132572D01*
X118124965Y-99386572D01*
X118104965Y-99386572D01*
X118104965Y-99406572D01*
X117850965Y-99406572D01*
X117850965Y-99386572D01*
X117830965Y-99386572D01*
X117830965Y-99132572D01*
X117850965Y-99132572D01*
X117850965Y-97939417D01*
X117621075Y-97818096D01*
X117473866Y-97862747D01*
X117211045Y-97987931D01*
X116977696Y-98161984D01*
X116782787Y-98378217D01*
X116651990Y-98597797D01*
X115060000Y-97005808D01*
X115060000Y-96842711D01*
X115103937Y-96798774D01*
X115217205Y-96629256D01*
X115295226Y-96440898D01*
X115335000Y-96240939D01*
X115335000Y-96037061D01*
X115295226Y-95837102D01*
X115217205Y-95648744D01*
X115103937Y-95479226D01*
X115060000Y-95435289D01*
X115060000Y-91350576D01*
X115355055Y-91055522D01*
X115468061Y-91078000D01*
X115671939Y-91078000D01*
X115871898Y-91038226D01*
X116060256Y-90960205D01*
X116229774Y-90846937D01*
X116373937Y-90702774D01*
X116487205Y-90533256D01*
X116565226Y-90344898D01*
X116605000Y-90144939D01*
X116605000Y-89941061D01*
X116565226Y-89741102D01*
X116487205Y-89552744D01*
X116373937Y-89383226D01*
X116229774Y-89239063D01*
X116060256Y-89125795D01*
X115871898Y-89047774D01*
X115671939Y-89008000D01*
X115468061Y-89008000D01*
X115268102Y-89047774D01*
X115079744Y-89125795D01*
X114910226Y-89239063D01*
X114766063Y-89383226D01*
X114652795Y-89552744D01*
X114613597Y-89647377D01*
X113789003Y-90471971D01*
X113764000Y-90492490D01*
X113764000Y-90456750D01*
X113605250Y-90298000D01*
X111506000Y-90298000D01*
X111506000Y-92147250D01*
X111664750Y-92306000D01*
X113191542Y-92306000D01*
X113314223Y-92281597D01*
X113429785Y-92233730D01*
X113533789Y-92164237D01*
X113540000Y-92158026D01*
X113540001Y-93936837D01*
X113483494Y-93890463D01*
X113373180Y-93831498D01*
X113253482Y-93795188D01*
X113129000Y-93782928D01*
X109629000Y-93782928D01*
X109504518Y-93795188D01*
X109384820Y-93831498D01*
X109274506Y-93890463D01*
X109177815Y-93969815D01*
X109098463Y-94066506D01*
X109039498Y-94176820D01*
X109003188Y-94296518D01*
X108990928Y-94421000D01*
X108364000Y-94421000D01*
X108364000Y-93456750D01*
X108205250Y-93298000D01*
X106806000Y-93298000D01*
X106552000Y-93298000D01*
X105152750Y-93298000D01*
X104994000Y-93456750D01*
X104787700Y-93456750D01*
X104787700Y-91358458D01*
X104994000Y-91358458D01*
X104994000Y-92885250D01*
X105152750Y-93044000D01*
X106552000Y-93044000D01*
X106552000Y-90944750D01*
X106806000Y-90944750D01*
X106806000Y-93044000D01*
X108205250Y-93044000D01*
X108364000Y-92885250D01*
X108364000Y-91358458D01*
X108339597Y-91235777D01*
X108291730Y-91120215D01*
X108222237Y-91016211D01*
X108133789Y-90927763D01*
X108029785Y-90858270D01*
X107914223Y-90810403D01*
X107791542Y-90786000D01*
X106964750Y-90786000D01*
X106806000Y-90944750D01*
X106552000Y-90944750D01*
X106393250Y-90786000D01*
X105566458Y-90786000D01*
X105443777Y-90810403D01*
X105328215Y-90858270D01*
X105224211Y-90927763D01*
X105135763Y-91016211D01*
X105066270Y-91120215D01*
X105018403Y-91235777D01*
X104994000Y-91358458D01*
X104787700Y-91358458D01*
X104787700Y-90456750D01*
X108994000Y-90456750D01*
X108994000Y-91733542D01*
X109018403Y-91856223D01*
X109066270Y-91971785D01*
X109135763Y-92075789D01*
X109224211Y-92164237D01*
X109328215Y-92233730D01*
X109443777Y-92281597D01*
X109566458Y-92306000D01*
X111093250Y-92306000D01*
X111252000Y-92147250D01*
X111252000Y-90298000D01*
X109152750Y-90298000D01*
X108994000Y-90456750D01*
X104787700Y-90456750D01*
X104787700Y-88608458D01*
X108994000Y-88608458D01*
X108994000Y-89885250D01*
X109152750Y-90044000D01*
X111252000Y-90044000D01*
X111252000Y-88194750D01*
X111506000Y-88194750D01*
X111506000Y-90044000D01*
X113605250Y-90044000D01*
X113764000Y-89885250D01*
X113764000Y-88608458D01*
X113739597Y-88485777D01*
X113691730Y-88370215D01*
X113622237Y-88266211D01*
X113533789Y-88177763D01*
X113429785Y-88108270D01*
X113314223Y-88060403D01*
X113191542Y-88036000D01*
X111664750Y-88036000D01*
X111506000Y-88194750D01*
X111252000Y-88194750D01*
X111093250Y-88036000D01*
X109566458Y-88036000D01*
X109443777Y-88060403D01*
X109328215Y-88108270D01*
X109224211Y-88177763D01*
X109135763Y-88266211D01*
X109066270Y-88370215D01*
X109018403Y-88485777D01*
X108994000Y-88608458D01*
X104787700Y-88608458D01*
X104787700Y-85991700D01*
X133464300Y-85991700D01*
X133464301Y-109588300D01*
G04 #@! TD*
M02*
