M48
;DRILL file {KiCad (5.0.2-5)-5} date 2019 March 18, Monday 15:48:17
;FORMAT={-:-/ absolute / inch / decimal}
FMAT,2
INCH,TZ
T1C0.0157
T2C0.0394
T3C0.0400
%
G90
G05
T1
X4.145Y-3.405
X4.5Y-3.785
X4.55Y-3.545
X4.5522Y-3.4989
X4.56Y-3.7
X4.93Y-3.917
X4.972Y-4.131
X5.0414Y-3.9986
X5.127Y-4.144
X5.172Y-3.866
X5.205Y-3.545
T2
X4.19Y-3.9
X4.19Y-4.
X4.6448Y-3.9079
X4.7448Y-3.9079
X4.8448Y-3.9079
T3
X5.045Y-3.445
X5.045Y-3.545
X5.045Y-3.645
X5.045Y-3.745
X5.145Y-3.445
X5.145Y-3.545
X5.145Y-3.645
X5.145Y-3.745
T2
X4.2Y-3.6288G85X4.2Y-3.7075
G05
X4.4244Y-3.55G85X4.3456Y-3.55
G05
X4.4244Y-3.7863G85X4.3456Y-3.7863
G05
T0
M30
